<svg width="500" height="500" version="1.1" xmlns="http://www.w3.org/2000/svg" desc="Created with imagetracer.js version 1.2.6" ><path fill="rgb(122,120,121)" stroke="rgb(122,120,121)" stroke-width="1" opacity="0.12941176470588237" d="M 263.5 68 L 275 68.5 L 263.5 69 L 263.5 68 Z " /><path fill="rgb(122,120,121)" stroke="rgb(122,120,121)" stroke-width="1" opacity="0.12941176470588237" d="M 253.5 69 L 262 69.5 L 253.5 70 L 253.5 69 Z " /><path fill="rgb(122,120,121)" stroke="rgb(122,120,121)" stroke-width="1" opacity="0.12941176470588237" d="M 276.5 69 L 286 69.5 L 276.5 70 L 276.5 69 Z " /><path fill="rgb(122,120,121)" stroke="rgb(122,120,121)" stroke-width="1" opacity="0.12941176470588237" d="M 247.5 70 L 250 70.5 L 244.5 72 L 244.5 71 L 247.5 70 Z " /><path fill="rgb(122,120,121)" stroke="rgb(122,120,121)" stroke-width="1" opacity="0.12941176470588237" d="M 288.5 70 L 295 71.5 L 292.5 72 L 288.5 71 L 288.5 70 Z " /><path fill="rgb(122,120,121)" stroke="rgb(122,120,121)" stroke-width="1" opacity="0.12941176470588237" d="M 238.5 72 L 241 72.5 L 236.5 74 L 236.5 73 L 238.5 72 Z " /><path fill="rgb(122,120,121)" stroke="rgb(122,120,121)" stroke-width="1" opacity="0.12941176470588237" d="M 298.5 72 L 303 73.5 L 301.5 74 L 298.5 73 L 298.5 72 Z " /><path fill="rgb(122,120,121)" stroke="rgb(122,120,121)" stroke-width="1" opacity="0.12941176470588237" d="M 232.5 74 L 234 74.5 L 216.5 82 L 217.5 80 L 232.5 74 Z " /><path fill="rgb(122,120,121)" stroke="rgb(122,120,121)" stroke-width="1" opacity="0.12941176470588237" d="M 305.5 74 L 309 75.5 L 307.5 76 L 305.5 74 Z " /><path fill="rgb(122,120,121)" stroke="rgb(122,120,121)" stroke-width="1" opacity="0.12941176470588237" d="M 311.5 76 L 319 79.5 L 317.5 79 L 311.5 77 L 311.5 76 Z " /><path fill="rgb(122,120,121)" stroke="rgb(122,120,121)" stroke-width="1" opacity="0.12941176470588237" d="M 320.5 80 L 338 90.5 L 336.5 90 L 323.5 83 L 320.5 80 Z " /><path fill="rgb(122,120,121)" stroke="rgb(122,120,121)" stroke-width="1" opacity="0.12941176470588237" d="M 213.5 82 L 215 82.5 L 207.5 87 L 208.5 85 L 213.5 82 Z " /><path fill="rgb(122,120,121)" stroke="rgb(122,120,121)" stroke-width="1" opacity="0.12941176470588237" d="M 256.5 84 L 283 84.5 L 256.5 85 L 256.5 84 Z " /><path fill="rgb(122,120,121)" stroke="rgb(122,120,121)" stroke-width="1" opacity="0.12941176470588237" d="M 250.5 85 L 254 85.5 L 246.5 87 L 246.5 86 L 250.5 85 Z " /><path fill="rgb(122,120,121)" stroke="rgb(122,120,121)" stroke-width="1" opacity="0.12941176470588237" d="M 284.5 85 Q 293.9 85.1 300 88.5 L 297.5 89 L 293.5 87 L 284.5 86 L 284.5 85 Z " /><path fill="rgb(122,120,121)" stroke="rgb(122,120,121)" stroke-width="1" opacity="0.12941176470588237" d="M 205.5 87 L 203.5 90 L 199.5 92 L 199.5 91 L 205.5 87 Z " /><path fill="rgb(122,120,121)" stroke="rgb(122,120,121)" stroke-width="1" opacity="0.12941176470588237" d="M 242.5 87 L 245 87.5 L 239.5 89 L 239.5 88 L 242.5 87 Z " /><path fill="rgb(122,120,121)" stroke="rgb(122,120,121)" stroke-width="1" opacity="0.12941176470588237" d="M 302.5 89 Q 319.9 94.6 332 105.5 L 329.5 104 Q 317.9 95.1 302.5 90 L 302.5 89 Z " /><path fill="rgb(122,120,121)" stroke="rgb(122,120,121)" stroke-width="1" opacity="0.12941176470588237" d="M 233.5 90 L 235 90.5 L 231.5 92 L 231.5 91 L 233.5 90 Z " /><path fill="rgb(122,120,121)" stroke="rgb(122,120,121)" stroke-width="1" opacity="0.12941176470588237" d="M 339.5 91 L 350 99 Q 348.9 101.7 351.5 101 L 351.5 102 L 339 93 L 339.5 91 Z " /><path fill="rgb(122,120,121)" stroke="rgb(122,120,121)" stroke-width="1" opacity="0.12941176470588237" d="M 228.5 92 L 230 92.5 L 215.5 100 L 215.5 99 L 228.5 92 Z " /><path fill="rgb(122,120,121)" stroke="rgb(122,120,121)" stroke-width="1" opacity="0.12941176470588237" d="M 197.5 93 L 194.5 97 L 182 108.5 Q 182.8 110.8 180.5 110 L 186 103.5 Q 185.3 101.3 187.5 102 L 197.5 93 Z " /><path fill="rgb(122,120,121)" stroke="rgb(122,120,121)" stroke-width="1" opacity="0.12941176470588237" d="M 212.5 101 L 214 101.5 Q 200.8 109.3 191.5 121 L 198 113.5 Q 197.3 111.3 199.5 112 L 212.5 101 Z " /><path fill="rgb(122,120,121)" stroke="rgb(122,120,121)" stroke-width="1" opacity="0.12941176470588237" d="M 333.5 106 L 337.5 111 L 333 108 L 333.5 106 Z " /><path fill="rgb(122,120,121)" stroke="rgb(122,120,121)" stroke-width="1" opacity="0.12941176470588237" d="M 356.5 107 L 363 114.5 L 360 112.5 L 356.5 107 Z " /><path fill="rgb(122,120,121)" stroke="rgb(122,120,121)" stroke-width="1" opacity="0.12941176470588237" d="M 179.5 111 L 176 115.5 L 163.5 137 L 163 135.5 L 175 115.5 L 179.5 111 Z " /><path fill="rgb(122,120,121)" stroke="rgb(122,120,121)" stroke-width="1" opacity="0.12941176470588237" d="M 264.5 112 L 266 112.5 L 263 114 L 261.5 117 L 262 115.5 L 264.5 112 Z " /><path fill="rgb(122,120,121)" stroke="rgb(122,120,121)" stroke-width="1" opacity="0.12941176470588237" d="M 271.5 112 L 276 115.5 L 275.5 117 L 272.5 113 L 271.5 112 Z " /><path fill="rgb(122,120,121)" stroke="rgb(122,120,121)" stroke-width="1" opacity="0.12941176470588237" d="M 341.5 114 Q 350.4 121.2 356 131.5 L 354 130.5 L 347.5 121 Q 345.3 121.8 346 119.5 L 341.5 114 Z " /><path fill="rgb(122,120,121)" stroke="rgb(122,120,121)" stroke-width="1" opacity="0.12941176470588237" d="M 364.5 117 L 369 123.5 L 367 122.5 L 364.5 117 Z " /><path fill="rgb(122,120,121)" stroke="rgb(122,120,121)" stroke-width="1" opacity="0.12941176470588237" d="M 260.5 118 L 261 137 Q 248.2 137.9 242 146.5 Q 237.3 151.3 237.5 161 L 237 153.5 Q 239.9 145.4 246.5 141 Q 251.8 136.7 260 136 L 260.5 118 Z " /><path fill="rgb(122,120,121)" stroke="rgb(122,120,121)" stroke-width="1" opacity="0.12941176470588237" d="M 276.5 118 L 277 137 L 279.5 137 L 287 141.5 L 285.5 141 L 279.5 138 L 276 138 L 276.5 118 Z " /><path fill="rgb(122,120,121)" stroke="rgb(122,120,121)" stroke-width="1" opacity="0.12941176470588237" d="M 188.5 124 L 188 125.5 L 182.5 134 L 182 132.5 L 188.5 124 Z " /><path fill="rgb(122,120,121)" stroke="rgb(122,120,121)" stroke-width="1" opacity="0.12941176470588237" d="M 369.5 125 Q 371.8 124.3 371 126.5 L 369.5 125 Z " /><path fill="rgb(122,120,121)" stroke="rgb(122,120,121)" stroke-width="1" opacity="0.12941176470588237" d="M 371.5 128 Q 381.2 141.3 384 161.5 L 383 161.5 Q 379.8 141.3 371.5 128 Z " /><path fill="rgb(122,120,121)" stroke="rgb(122,120,121)" stroke-width="1" opacity="0.12941176470588237" d="M 356.5 133 L 357.5 135 L 356.5 133 Z " /><path fill="rgb(122,120,121)" stroke="rgb(122,120,121)" stroke-width="1" opacity="0.12941176470588237" d="M 181.5 135 L 181 136.5 L 178.5 141 L 179 139.5 L 181.5 135 Z " /><path fill="rgb(122,120,121)" stroke="rgb(122,120,121)" stroke-width="1" opacity="0.12941176470588237" d="M 358.5 136 L 362 142.5 L 360 141.5 L 358.5 136 Z " /><path fill="rgb(122,120,121)" stroke="rgb(122,120,121)" stroke-width="1" opacity="0.12941176470588237" d="M 162.5 138 L 163 139.5 L 159.5 147 L 159 144.5 L 162.5 138 Z " /><path fill="rgb(122,120,121)" stroke="rgb(122,120,121)" stroke-width="1" opacity="0.12941176470588237" d="M 177.5 142 L 178 143.5 L 176 144.5 L 177.5 142 Z " /><path fill="rgb(122,120,121)" stroke="rgb(122,120,121)" stroke-width="1" opacity="0.12941176470588237" d="M 288.5 142 L 292.5 147 L 288.5 142 Z " /><path fill="rgb(122,120,121)" stroke="rgb(122,120,121)" stroke-width="1" opacity="0.12941176470588237" d="M 362.5 144 L 368 158.5 L 367 158.5 L 362.5 144 Z " /><path fill="rgb(122,120,121)" stroke="rgb(122,120,121)" stroke-width="1" opacity="0.12941176470588237" d="M 265.5 145 L 269 145.5 L 265.5 146 L 265.5 145 Z " /><path fill="rgb(122,120,121)" stroke="rgb(122,120,121)" stroke-width="1" opacity="0.12941176470588237" d="M 259.5 146 L 263 146.5 Q 255.9 146.9 253 151.5 L 250.5 158 L 250 155.5 L 255.5 148 L 259.5 146 Z " /><path fill="rgb(122,120,121)" stroke="rgb(122,120,121)" stroke-width="1" opacity="0.12941176470588237" d="M 270.5 146 L 274.5 146 L 281 150.5 L 286.5 159 L 289.5 160 L 295 156.5 L 295.5 155 L 296 156.5 L 295 159 L 289.5 161 L 283 156.5 L 277.5 149 Q 275.8 146.2 270.5 147 L 270.5 146 Z " /><path fill="rgb(122,120,121)" stroke="rgb(122,120,121)" stroke-width="1" opacity="0.12941176470588237" d="M 175.5 147 L 176 148.5 L 174 149.5 L 175.5 147 Z " /><path fill="rgb(122,120,121)" stroke="rgb(122,120,121)" stroke-width="1" opacity="0.12941176470588237" d="M 158.5 148 L 159 149.5 L 155 161.5 L 155 167.5 L 153 174.5 L 152.5 197 L 152 174.5 L 154 167.5 L 154 161.5 L 158.5 148 Z " /><path fill="rgb(122,120,121)" stroke="rgb(122,120,121)" stroke-width="1" opacity="0.12941176470588237" d="M 293.5 148 Q 296.1 147.2 295 150.5 L 296 152.5 L 295 152.5 L 293.5 148 Z " /><path fill="rgb(122,120,121)" stroke="rgb(122,120,121)" stroke-width="1" opacity="0.12941176470588237" d="M 173.5 152 L 174 153.5 L 172.5 156 L 172 154.5 L 173.5 152 Z " /><path fill="rgb(122,120,121)" stroke="rgb(122,120,121)" stroke-width="1" opacity="0.12941176470588237" d="M 171.5 157 L 172 160.5 L 169.5 171 L 169 165.5 L 171.5 157 Z " /><path fill="rgb(122,120,121)" stroke="rgb(122,120,121)" stroke-width="1" opacity="0.12941176470588237" d="M 368.5 160 L 371 169.5 L 371 178.5 L 370 178.5 L 370 169.5 Q 366.9 165.9 368.5 160 Z " /><path fill="rgb(122,120,121)" stroke="rgb(122,120,121)" stroke-width="1" opacity="0.12941176470588237" d="M 237.5 162 Q 238.1 174.9 246.5 180 L 261 186.5 L 258.5 187 L 244 180 L 244 178 Q 241.3 179.1 242 176.5 L 241 174 Q 238 175.3 239 171.5 Q 235.8 168.3 237.5 162 Z " /><path fill="rgb(122,120,121)" stroke="rgb(122,120,121)" stroke-width="1" opacity="0.12941176470588237" d="M 250.5 163 Q 251.9 170.1 257.5 173 L 263 175.5 L 261.5 176 L 252 170 L 250 165.5 L 250.5 163 Z " /><path fill="rgb(122,120,121)" stroke="rgb(122,120,121)" stroke-width="1" opacity="0.12941176470588237" d="M 384.5 163 L 386 171.5 L 385 171.5 L 384.5 163 Z " /><path fill="rgb(122,120,121)" stroke="rgb(122,120,121)" stroke-width="1" opacity="0.12941176470588237" d="M 168.5 172 L 169 177.5 L 168 177.5 L 168.5 172 Z " /><path fill="rgb(122,120,121)" stroke="rgb(122,120,121)" stroke-width="1" opacity="0.12941176470588237" d="M 385.5 173 L 386 175.5 L 385 175.5 L 385.5 173 Z " /><path fill="rgb(122,120,121)" stroke="rgb(122,120,121)" stroke-width="1" opacity="0.12941176470588237" d="M 264.5 176 L 268 177.5 L 265.5 178 L 264.5 176 Z " /><path fill="rgb(122,120,121)" stroke="rgb(122,120,121)" stroke-width="1" opacity="0.12941176470588237" d="M 269.5 178 L 274 179.5 L 271.5 180 L 269.5 178 Z " /><path fill="rgb(122,120,121)" stroke="rgb(122,120,121)" stroke-width="1" opacity="0.12941176470588237" d="M 275.5 180 Q 283.3 181.3 288 185.5 L 286.5 185 L 275.5 181 L 275.5 180 Z " /><path fill="rgb(122,120,121)" stroke="rgb(122,120,121)" stroke-width="1" opacity="0.12941176470588237" d="M 167.5 181 L 168 192.5 L 167 192.5 L 167.5 181 Z " /><path fill="rgb(122,120,121)" stroke="rgb(122,120,121)" stroke-width="1" opacity="0.12941176470588237" d="M 386.5 181 L 387 189.5 L 386 189.5 L 386.5 181 Z " /><path fill="rgb(122,120,121)" stroke="rgb(122,120,121)" stroke-width="1" opacity="0.12941176470588237" d="M 289.5 186 L 296 191.5 L 297 193.5 L 294 191.5 Q 294.8 189.3 292.5 190 L 289.5 186 Z " /><path fill="rgb(122,120,121)" stroke="rgb(122,120,121)" stroke-width="1" opacity="0.12941176470588237" d="M 262.5 187 L 267 188.5 L 264.5 189 L 262.5 187 Z " /><path fill="rgb(122,120,121)" stroke="rgb(122,120,121)" stroke-width="1" opacity="0.12941176470588237" d="M 268.5 189 L 277.5 192 L 280 194.5 L 277.5 193 L 268.5 190 L 268.5 189 Z " /><path fill="rgb(122,120,121)" stroke="rgb(122,120,121)" stroke-width="1" opacity="0.12941176470588237" d="M 370.5 193 L 371 202.5 L 367.5 214 L 367 212.5 L 370 202.5 L 370.5 193 Z " /><path fill="rgb(122,120,121)" stroke="rgb(122,120,121)" stroke-width="1" opacity="0.12941176470588237" d="M 168.5 194 L 169 199.5 L 168 199.5 L 168.5 194 Z " /><path fill="rgb(122,120,121)" stroke="rgb(122,120,121)" stroke-width="1" opacity="0.12941176470588237" d="M 281.5 195 L 286 200.5 L 284 199.5 L 281.5 195 Z " /><path fill="rgb(122,120,121)" stroke="rgb(122,120,121)" stroke-width="1" opacity="0.12941176470588237" d="M 297.5 195 L 301 203.5 L 301 210.5 L 299.5 214 L 299 211.5 Q 301.5 210 300 204.5 L 297.5 195 Z " /><path fill="rgb(122,120,121)" stroke="rgb(122,120,121)" stroke-width="1" opacity="0.12941176470588237" d="M 385.5 197 L 386 204.5 L 384.5 209 L 384 205.5 L 385.5 197 Z " /><path fill="rgb(122,120,121)" stroke="rgb(122,120,121)" stroke-width="1" opacity="0.12941176470588237" d="M 153.5 198 L 154 202.5 L 153 202.5 L 153.5 198 Z " /><path fill="rgb(122,120,121)" stroke="rgb(122,120,121)" stroke-width="1" opacity="0.12941176470588237" d="M 169.5 201 L 172 214.5 L 178 228.5 L 176 227.5 Q 169.6 216.3 169.5 201 Z " /><path fill="rgb(122,120,121)" stroke="rgb(122,120,121)" stroke-width="1" opacity="0.12941176470588237" d="M 286.5 202 L 288 209.5 L 287 209.5 L 286.5 202 Z " /><path fill="rgb(122,120,121)" stroke="rgb(122,120,121)" stroke-width="1" opacity="0.12941176470588237" d="M 154.5 204 L 155 210.5 L 154 210.5 L 154.5 204 Z " /><path fill="rgb(122,120,121)" stroke="rgb(122,120,121)" stroke-width="1" opacity="0.12941176470588237" d="M 243.5 206 Q 249.3 205.2 251 208.5 L 257.5 219 Q 261.1 222.4 268 222.5 L 263.5 223 Q 256.8 220.8 253 215.5 L 250 208 L 243.5 207 Q 238.8 208.3 240 215.5 L 248.5 226 L 255 229.5 L 253.5 230 L 242 220.5 Q 238.1 217.9 239 210.5 L 241 207 L 243.5 206 Z " /><path fill="rgb(122,120,121)" stroke="rgb(122,120,121)" stroke-width="1" opacity="0.12941176470588237" d="M 383.5 210 L 384 214.5 L 377.5 232 L 377 230.5 Q 382 222 383.5 210 Z " /><path fill="rgb(122,120,121)" stroke="rgb(122,120,121)" stroke-width="1" opacity="0.12941176470588237" d="M 286.5 211 L 287 213.5 L 281.5 221 Q 279.2 223.7 273.5 223 L 273.5 222 L 277.5 222 L 284 217.5 L 286.5 211 Z " /><path fill="rgb(122,120,121)" stroke="rgb(122,120,121)" stroke-width="1" opacity="0.12941176470588237" d="M 155.5 212 L 159 223.5 L 158 223.5 L 155.5 212 Z " /><path fill="rgb(122,120,121)" stroke="rgb(122,120,121)" stroke-width="1" opacity="0.12941176470588237" d="M 298.5 215 L 299 217.5 L 297 218.5 L 298.5 215 Z " /><path fill="rgb(122,120,121)" stroke="rgb(122,120,121)" stroke-width="1" opacity="0.12941176470588237" d="M 366.5 215 L 367 217.5 L 366 217.5 L 366.5 215 Z " /><path fill="rgb(122,120,121)" stroke="rgb(122,120,121)" stroke-width="1" opacity="0.12941176470588237" d="M 365.5 219 L 366 220.5 L 362.5 228 L 362 226.5 L 365.5 219 Z " /><path fill="rgb(122,120,121)" stroke="rgb(122,120,121)" stroke-width="1" opacity="0.12941176470588237" d="M 296.5 220 L 297 221.5 L 291 226.5 L 296.5 220 Z " /><path fill="rgb(122,120,121)" stroke="rgb(122,120,121)" stroke-width="1" opacity="0.12941176470588237" d="M 159.5 225 L 161 228.5 L 160 228.5 L 159.5 225 Z " /><path fill="rgb(122,120,121)" stroke="rgb(122,120,121)" stroke-width="1" opacity="0.12941176470588237" d="M 289.5 227 L 288.5 229 L 289.5 227 Z " /><path fill="rgb(122,120,121)" stroke="rgb(122,120,121)" stroke-width="1" opacity="0.12941176470588237" d="M 286.5 229 L 285.5 231 L 284 230.5 L 286.5 229 Z " /><path fill="rgb(122,120,121)" stroke="rgb(122,120,121)" stroke-width="1" opacity="0.12941176470588237" d="M 161.5 231 L 163 233.5 L 162 233.5 L 161.5 231 Z " /><path fill="rgb(122,120,121)" stroke="rgb(122,120,121)" stroke-width="1" opacity="0.12941176470588237" d="M 178.5 231 L 179.5 233 L 178.5 231 Z " /><path fill="rgb(122,120,121)" stroke="rgb(122,120,121)" stroke-width="1" opacity="0.12941176470588237" d="M 259.5 231 L 261 231.5 L 261 248.5 L 260 248.5 L 260 232.5 L 259.5 231 Z " /><path fill="rgb(122,120,121)" stroke="rgb(122,120,121)" stroke-width="1" opacity="0.12941176470588237" d="M 280.5 231 L 282 231.5 L 277 233 L 276.5 250 L 276 232 L 280.5 231 Z " /><path fill="rgb(122,120,121)" stroke="rgb(122,120,121)" stroke-width="1" opacity="0.12941176470588237" d="M 359.5 233 L 359 234.5 L 356.5 239 L 356 237.5 L 359.5 233 Z " /><path fill="rgb(122,120,121)" stroke="rgb(122,120,121)" stroke-width="1" opacity="0.12941176470588237" d="M 376.5 233 L 377 234.5 L 375 235.5 L 376.5 233 Z " /><path fill="rgb(122,120,121)" stroke="rgb(122,120,121)" stroke-width="1" opacity="0.12941176470588237" d="M 180.5 234 L 184 239.5 L 182 238.5 L 180.5 234 Z " /><path fill="rgb(122,120,121)" stroke="rgb(122,120,121)" stroke-width="1" opacity="0.12941176470588237" d="M 163.5 235 L 165 237.5 L 163 236.5 L 163.5 235 Z " /><path fill="rgb(122,120,121)" stroke="rgb(122,120,121)" stroke-width="1" opacity="0.12941176470588237" d="M 80.5 237 Q 87.8 236.8 90 241.5 L 91 244.5 L 91 424.5 L 90 424.5 L 90 244.5 L 86.5 239 L 80.5 238 L 76 241.5 L 75 244.5 L 74.5 424 L 74 244.5 L 78.5 238 L 80.5 237 Z " /><path fill="rgb(122,120,121)" stroke="rgb(122,120,121)" stroke-width="1" opacity="0.12941176470588237" d="M 374.5 237 L 375 238.5 L 371.5 244 L 372 242.5 L 374.5 237 Z " /><path fill="rgb(122,120,121)" stroke="rgb(122,120,121)" stroke-width="1" opacity="0.12941176470588237" d="M 165.5 239 Q 171.1 251.4 180 260.5 L 176 257.5 L 165 240.5 L 165.5 239 Z " /><path fill="rgb(122,120,121)" stroke="rgb(122,120,121)" stroke-width="1" opacity="0.12941176470588237" d="M 355.5 240 L 354 242.5 L 349.5 249 L 351 246.5 L 355.5 240 Z " /><path fill="rgb(122,120,121)" stroke="rgb(122,120,121)" stroke-width="1" opacity="0.12941176470588237" d="M 184.5 241 L 200 259.5 L 200 266.5 L 199 269 L 194.5 271 L 194.5 270 L 199 266.5 L 199 259.5 L 184 242.5 L 184.5 241 Z " /><path fill="rgb(122,120,121)" stroke="rgb(122,120,121)" stroke-width="1" opacity="0.12941176470588237" d="M 370.5 245 L 369.5 247 L 370.5 245 Z " /><path fill="rgb(122,120,121)" stroke="rgb(122,120,121)" stroke-width="1" opacity="0.12941176470588237" d="M 261.5 250 L 263 254 L 270.5 256 L 275 252.5 L 275.5 251 L 276 252.5 L 270.5 257 L 267.5 257 L 262 253.5 L 261.5 250 Z " /><path fill="rgb(122,120,121)" stroke="rgb(122,120,121)" stroke-width="1" opacity="0.12941176470588237" d="M 347.5 250 L 348 251.5 L 336.5 263 L 335 263 Q 336.1 265.7 333.5 265 Q 321.7 276.7 303.5 282 L 303.5 281 L 310.5 279 L 329.5 268 L 347 251.5 L 347.5 250 Z " /><path fill="rgb(122,120,121)" stroke="rgb(122,120,121)" stroke-width="1" opacity="0.12941176470588237" d="M 366.5 251 L 366 252.5 L 352 271 L 339 280 Q 340.1 282.7 337.5 282 L 339.5 279 L 356 264.5 L 358 261.5 L 366.5 251 Z " /><path fill="rgb(122,120,121)" stroke="rgb(122,120,121)" stroke-width="1" opacity="0.12941176470588237" d="M 117.5 256 L 120 256.5 L 116 258.5 L 114.5 272 L 114 259.5 L 117.5 256 Z " /><path fill="rgb(122,120,121)" stroke="rgb(122,120,121)" stroke-width="1" opacity="0.12941176470588237" d="M 123.5 256 Q 128.5 255.5 129 259.5 L 130 261.5 L 130 281.5 L 129 281.5 L 129 261.5 L 125.5 257 Q 122.5 257.5 123.5 256 Z " /><path fill="rgb(122,120,121)" stroke="rgb(122,120,121)" stroke-width="1" opacity="0.12941176470588237" d="M 182.5 264 L 192 271.5 L 190.5 271 L 188.5 271 L 182.5 264 Z " /><path fill="rgb(122,120,121)" stroke="rgb(122,120,121)" stroke-width="1" opacity="0.12941176470588237" d="M 389.5 277 L 402.5 277 L 414 283.5 L 411.5 282 L 401.5 278 L 390.5 278 L 377.5 284 L 378.5 282 L 389.5 277 Z " /><path fill="rgb(122,120,121)" stroke="rgb(122,120,121)" stroke-width="1" opacity="0.12941176470588237" d="M 248.5 282 Q 252.3 281.3 253 283.5 L 251.5 283 Q 247.5 283.8 248.5 282 Z " /><path fill="rgb(122,120,121)" stroke="rgb(122,120,121)" stroke-width="1" opacity="0.12941176470588237" d="M 300.5 282 L 302 282.5 L 297 285.5 L 296 291.5 L 298 296 L 300 296.5 L 298.5 297 Q 294.6 294.9 295 288.5 L 298.5 283 L 300.5 282 Z " /><path fill="rgb(122,120,121)" stroke="rgb(122,120,121)" stroke-width="1" opacity="0.12941176470588237" d="M 335.5 282 L 334.5 284 L 335.5 282 Z " /><path fill="rgb(122,120,121)" stroke="rgb(122,120,121)" stroke-width="1" opacity="0.12941176470588237" d="M 254.5 284 Q 257.5 286 257 291.5 L 254 297 L 252 296.5 Q 256 294.5 256 288.5 L 254.5 284 Z " /><path fill="rgb(122,120,121)" stroke="rgb(122,120,121)" stroke-width="1" opacity="0.12941176470588237" d="M 332.5 284 L 331.5 286 L 324.5 290 L 325.5 288 L 332.5 284 Z " /><path fill="rgb(122,120,121)" stroke="rgb(122,120,121)" stroke-width="1" opacity="0.12941176470588237" d="M 375.5 284 L 374.5 286 L 370.5 288 L 371.5 286 L 375.5 284 Z " /><path fill="rgb(122,120,121)" stroke="rgb(122,120,121)" stroke-width="1" opacity="0.12941176470588237" d="M 415.5 284 L 422 292.5 L 420 291.5 L 415.5 284 Z " /><path fill="rgb(122,120,121)" stroke="rgb(122,120,121)" stroke-width="1" opacity="0.12941176470588237" d="M 368.5 288 L 367.5 290 L 336.5 307 L 336.5 306 L 368.5 288 Z " /><path fill="rgb(122,120,121)" stroke="rgb(122,120,121)" stroke-width="1" opacity="0.12941176470588237" d="M 321.5 290 L 323 290.5 L 320.5 292 L 321.5 290 Z " /><path fill="rgb(122,120,121)" stroke="rgb(122,120,121)" stroke-width="1" opacity="0.12941176470588237" d="M 317.5 292 L 319 292.5 L 307.5 297 L 307.5 296 L 317.5 292 Z " /><path fill="rgb(122,120,121)" stroke="rgb(122,120,121)" stroke-width="1" opacity="0.12941176470588237" d="M 393.5 292 L 399 292.5 L 393.5 293 L 385.5 297 L 385.5 296 L 393.5 292 Z " /><path fill="rgb(122,120,121)" stroke="rgb(122,120,121)" stroke-width="1" opacity="0.12941176470588237" d="M 400.5 293 L 408 297.5 L 409 300.5 L 408 300.5 L 403.5 295 Q 399.7 294.8 400.5 293 Z " /><path fill="rgb(122,120,121)" stroke="rgb(122,120,121)" stroke-width="1" opacity="0.12941176470588237" d="M 422.5 294 L 424 297.5 L 423 297.5 L 422.5 294 Z " /><path fill="rgb(122,120,121)" stroke="rgb(122,120,121)" stroke-width="1" opacity="0.12941176470588237" d="M 129 297 L 251 297.5 L 130 298 L 129.5 375 L 129 297 Z " /><path fill="rgb(122,120,121)" stroke="rgb(122,120,121)" stroke-width="1" opacity="0.12941176470588237" d="M 301.5 297 L 306 297.5 L 301.5 298 L 301.5 297 Z " /><path fill="rgb(122,120,121)" stroke="rgb(122,120,121)" stroke-width="1" opacity="0.12941176470588237" d="M 383.5 297 L 382.5 299 L 383.5 297 Z " /><path fill="rgb(122,120,121)" stroke="rgb(122,120,121)" stroke-width="1" opacity="0.12941176470588237" d="M 379.5 299 L 381 299.5 L 378.5 301 L 379.5 299 Z " /><path fill="rgb(122,120,121)" stroke="rgb(122,120,121)" stroke-width="1" opacity="0.12941176470588237" d="M 424.5 299 L 426 308.5 L 425 308.5 L 424.5 299 Z " /><path fill="rgb(122,120,121)" stroke="rgb(122,120,121)" stroke-width="1" opacity="0.12941176470588237" d="M 376.5 301 L 375.5 303 L 376.5 301 Z " /><path fill="rgb(122,120,121)" stroke="rgb(122,120,121)" stroke-width="1" opacity="0.12941176470588237" d="M 409.5 302 L 410 305.5 L 409 305.5 L 409.5 302 Z " /><path fill="rgb(122,120,121)" stroke="rgb(122,120,121)" stroke-width="1" opacity="0.12941176470588237" d="M 373.5 303 L 372.5 305 L 368.5 307 L 369.5 305 L 373.5 303 Z " /><path fill="rgb(122,120,121)" stroke="rgb(122,120,121)" stroke-width="1" opacity="0.12941176470588237" d="M 334.5 307 L 332.5 310 L 326.5 313 L 327.5 311 L 334.5 307 Z " /><path fill="rgb(122,120,121)" stroke="rgb(122,120,121)" stroke-width="1" opacity="0.12941176470588237" d="M 365.5 307 L 367 307.5 L 359.5 312 L 360.5 310 L 365.5 307 Z " /><path fill="rgb(122,120,121)" stroke="rgb(122,120,121)" stroke-width="1" opacity="0.12941176470588237" d="M 409.5 307 L 410 310.5 L 407.5 314 L 408 312.5 L 409.5 307 Z " /><path fill="rgb(122,120,121)" stroke="rgb(122,120,121)" stroke-width="1" opacity="0.12941176470588237" d="M 424.5 310 L 425 313.5 L 424 313.5 L 424.5 310 Z " /><path fill="rgb(122,120,121)" stroke="rgb(122,120,121)" stroke-width="1" opacity="0.12941176470588237" d="M 357.5 312 L 356.5 314 L 345.5 320 L 346.5 318 L 357.5 312 Z " /><path fill="rgb(122,120,121)" stroke="rgb(122,120,121)" stroke-width="1" opacity="0.12941176470588237" d="M 324.5 313 L 323.5 315 L 314.5 320 L 206.5 320 L 206.5 319 L 313.5 319 L 324.5 313 Z " /><path fill="rgb(122,120,121)" stroke="rgb(122,120,121)" stroke-width="1" opacity="0.12941176470588237" d="M 406.5 315 L 404.5 318 L 397.5 322 L 398.5 320 L 406.5 315 Z " /><path fill="rgb(122,120,121)" stroke="rgb(122,120,121)" stroke-width="1" opacity="0.12941176470588237" d="M 423.5 315 L 424 317.5 L 422 318.5 L 423.5 315 Z " /><path fill="rgb(122,120,121)" stroke="rgb(122,120,121)" stroke-width="1" opacity="0.12941176470588237" d="M 343.5 320 L 342.5 322 L 338.5 324 L 339.5 322 L 343.5 320 Z " /><path fill="rgb(122,120,121)" stroke="rgb(122,120,121)" stroke-width="1" opacity="0.12941176470588237" d="M 421.5 320 L 422 321.5 L 415.5 329 L 412.5 331 L 415.5 327 Q 417.8 327.8 417 325.5 L 421.5 320 Z " /><path fill="rgb(122,120,121)" stroke="rgb(122,120,121)" stroke-width="1" opacity="0.12941176470588237" d="M 201 322 L 203 322.5 L 201 323.5 L 201 322 Z " /><path fill="rgb(122,120,121)" stroke="rgb(122,120,121)" stroke-width="1" opacity="0.12941176470588237" d="M 395.5 322 L 394.5 324 L 395.5 322 Z " /><path fill="rgb(122,120,121)" stroke="rgb(122,120,121)" stroke-width="1" opacity="0.12941176470588237" d="M 391.5 324 L 390.5 326 L 391.5 324 Z " /><path fill="rgb(122,120,121)" stroke="rgb(122,120,121)" stroke-width="1" opacity="0.12941176470588237" d="M 334.5 325 L 333.5 327 L 322.5 333 L 323.5 331 L 334.5 325 Z " /><path fill="rgb(122,120,121)" stroke="rgb(122,120,121)" stroke-width="1" opacity="0.12941176470588237" d="M 200.5 326 L 201 328.5 L 200 328.5 L 200.5 326 Z " /><path fill="rgb(122,120,121)" stroke="rgb(122,120,121)" stroke-width="1" opacity="0.12941176470588237" d="M 387.5 326 L 389 326.5 L 383.5 330 L 384.5 328 L 387.5 326 Z " /><path fill="rgb(122,120,121)" stroke="rgb(122,120,121)" stroke-width="1" opacity="0.12941176470588237" d="M 201.5 330 L 203 333 L 207 334.5 L 205.5 335 L 201 331.5 L 201.5 330 Z " /><path fill="rgb(122,120,121)" stroke="rgb(122,120,121)" stroke-width="1" opacity="0.12941176470588237" d="M 380.5 330 L 382 330.5 L 370.5 337 L 370.5 336 L 380.5 330 Z " /><path fill="rgb(122,120,121)" stroke="rgb(122,120,121)" stroke-width="1" opacity="0.12941176470588237" d="M 410.5 331 L 409.5 333 L 402.5 337 L 403.5 335 L 410.5 331 Z " /><path fill="rgb(122,120,121)" stroke="rgb(122,120,121)" stroke-width="1" opacity="0.12941176470588237" d="M 320.5 333 L 319.5 335 L 315 334.5 L 320.5 333 Z " /><path fill="rgb(122,120,121)" stroke="rgb(122,120,121)" stroke-width="1" opacity="0.12941176470588237" d="M 304.5 334 L 314 334.5 L 304.5 335 L 304.5 334 Z " /><path fill="rgb(122,120,121)" stroke="rgb(122,120,121)" stroke-width="1" opacity="0.12941176470588237" d="M 368.5 337 L 367.5 339 L 368.5 337 Z " /><path fill="rgb(122,120,121)" stroke="rgb(122,120,121)" stroke-width="1" opacity="0.12941176470588237" d="M 399.5 337 L 401 337.5 L 398.5 339 L 399.5 337 Z " /><path fill="rgb(122,120,121)" stroke="rgb(122,120,121)" stroke-width="1" opacity="0.12941176470588237" d="M 364 339 L 366 339.5 L 364 340.5 L 364 339 Z " /><path fill="rgb(122,120,121)" stroke="rgb(122,120,121)" stroke-width="1" opacity="0.12941176470588237" d="M 396.5 339 L 395.5 341 L 388.5 345 L 389.5 343 L 396.5 339 Z " /><path fill="rgb(122,120,121)" stroke="rgb(122,120,121)" stroke-width="1" opacity="0.12941176470588237" d="M 361.5 341 L 363 341.5 L 360.5 343 L 361.5 341 Z " /><path fill="rgb(122,120,121)" stroke="rgb(122,120,121)" stroke-width="1" opacity="0.12941176470588237" d="M 357.5 343 L 359 343.5 L 340.5 354 L 340.5 353 L 357.5 343 Z " /><path fill="rgb(122,120,121)" stroke="rgb(122,120,121)" stroke-width="1" opacity="0.12941176470588237" d="M 385.5 345 L 387 345.5 L 379.5 350 L 380.5 348 L 385.5 345 Z " /><path fill="rgb(122,120,121)" stroke="rgb(122,120,121)" stroke-width="1" opacity="0.12941176470588237" d="M 377.5 350 L 376.5 352 L 372.5 354 L 373.5 352 L 377.5 350 Z " /><path fill="rgb(122,120,121)" stroke="rgb(122,120,121)" stroke-width="1" opacity="0.12941176470588237" d="M 369.5 354 L 371 354.5 L 345.5 369 L 345.5 368 L 369.5 354 Z " /><path fill="rgb(122,120,121)" stroke="rgb(122,120,121)" stroke-width="1" opacity="0.12941176470588237" d="M 335.5 356 L 334.5 358 L 330.5 360 L 331.5 358 L 335.5 356 Z " /><path fill="rgb(122,120,121)" stroke="rgb(122,120,121)" stroke-width="1" opacity="0.12941176470588237" d="M 328.5 360 L 327.5 362 L 323.5 364 L 324.5 362 L 328.5 360 Z " /><path fill="rgb(122,120,121)" stroke="rgb(122,120,121)" stroke-width="1" opacity="0.12941176470588237" d="M 320.5 364 L 322 364.5 L 307.5 373 L 308.5 371 L 320.5 364 Z " /><path fill="rgb(122,120,121)" stroke="rgb(122,120,121)" stroke-width="1" opacity="0.12941176470588237" d="M 343.5 369 L 342.5 371 L 343.5 369 Z " /><path fill="rgb(122,120,121)" stroke="rgb(122,120,121)" stroke-width="1" opacity="0.12941176470588237" d="M 339.5 371 L 341 371.5 L 305.5 392 L 306.5 390 L 339.5 371 Z " /><path fill="rgb(122,120,121)" stroke="rgb(122,120,121)" stroke-width="1" opacity="0.12941176470588237" d="M 305.5 373 L 304.5 375 L 300.5 377 L 301.5 375 L 305.5 373 Z " /><path fill="rgb(122,120,121)" stroke="rgb(122,120,121)" stroke-width="1" opacity="0.12941176470588237" d="M 132.5 375 L 136 376.5 L 134.5 377 L 132.5 375 Z " /><path fill="rgb(122,120,121)" stroke="rgb(122,120,121)" stroke-width="1" opacity="0.12941176470588237" d="M 138.5 377 L 144 378.5 L 141.5 379 L 138.5 378 L 138.5 377 Z " /><path fill="rgb(122,120,121)" stroke="rgb(122,120,121)" stroke-width="1" opacity="0.12941176470588237" d="M 297.5 377 L 299 377.5 L 270.5 394 L 271.5 392 L 297.5 377 Z " /><path fill="rgb(122,120,121)" stroke="rgb(122,120,121)" stroke-width="1" opacity="0.12941176470588237" d="M 145.5 379 L 150 380.5 L 148.5 381 L 145.5 380 L 145.5 379 Z " /><path fill="rgb(122,120,121)" stroke="rgb(122,120,121)" stroke-width="1" opacity="0.12941176470588237" d="M 151.5 381 L 176 388.5 L 174.5 389 L 151.5 382 L 151.5 381 Z " /><path fill="rgb(122,120,121)" stroke="rgb(122,120,121)" stroke-width="1" opacity="0.12941176470588237" d="M 177.5 389 L 186 391.5 L 183.5 392 L 177.5 390 L 177.5 389 Z " /><path fill="rgb(122,120,121)" stroke="rgb(122,120,121)" stroke-width="1" opacity="0.12941176470588237" d="M 129 390 L 134 391.5 L 131.5 392 L 130 391.5 L 130 407.5 L 125.5 413 L 124 412.5 L 128 409.5 L 129 407.5 L 129 390 Z " /><path fill="rgb(122,120,121)" stroke="rgb(122,120,121)" stroke-width="1" opacity="0.12941176470588237" d="M 136.5 392 L 140 393.5 L 138.5 394 L 136.5 392 Z " /><path fill="rgb(122,120,121)" stroke="rgb(122,120,121)" stroke-width="1" opacity="0.12941176470588237" d="M 187.5 392 L 192 393.5 L 190.5 394 L 187.5 393 L 187.5 392 Z " /><path fill="rgb(122,120,121)" stroke="rgb(122,120,121)" stroke-width="1" opacity="0.12941176470588237" d="M 303.5 392 L 302.5 394 L 298.5 396 L 299.5 394 L 303.5 392 Z " /><path fill="rgb(122,120,121)" stroke="rgb(122,120,121)" stroke-width="1" opacity="0.12941176470588237" d="M 142.5 394 L 158 398.5 L 154.5 399 L 151.5 397 L 142.5 395 L 142.5 394 Z " /><path fill="rgb(122,120,121)" stroke="rgb(122,120,121)" stroke-width="1" opacity="0.12941176470588237" d="M 194.5 394 L 199 395.5 L 196.5 396 L 194.5 394 Z " /><path fill="rgb(122,120,121)" stroke="rgb(122,120,121)" stroke-width="1" opacity="0.12941176470588237" d="M 268.5 394 L 267.5 396 L 268.5 394 Z " /><path fill="rgb(122,120,121)" stroke="rgb(122,120,121)" stroke-width="1" opacity="0.12941176470588237" d="M 201.5 396 L 225 403.5 L 223.5 404 L 203.5 398 L 201.5 396 Z " /><path fill="rgb(122,120,121)" stroke="rgb(122,120,121)" stroke-width="1" opacity="0.12941176470588237" d="M 264.5 396 L 266 396.5 L 247.5 407 L 247.5 406 L 264.5 396 Z " /><path fill="rgb(122,120,121)" stroke="rgb(122,120,121)" stroke-width="1" opacity="0.12941176470588237" d="M 295.5 396 L 297 396.5 L 285.5 403 L 285.5 402 L 295.5 396 Z " /><path fill="rgb(122,120,121)" stroke="rgb(122,120,121)" stroke-width="1" opacity="0.12941176470588237" d="M 159.5 399 L 167 401.5 L 165.5 402 L 159.5 400 L 159.5 399 Z " /><path fill="rgb(122,120,121)" stroke="rgb(122,120,121)" stroke-width="1" opacity="0.12941176470588237" d="M 114.5 402 Q 113.8 409.2 117.5 412 L 123 413.5 L 119.5 414 L 114 409.5 L 114.5 402 Z " /><path fill="rgb(122,120,121)" stroke="rgb(122,120,121)" stroke-width="1" opacity="0.12941176470588237" d="M 168.5 402 L 171 402.5 L 168.5 403 L 168.5 402 Z " /><path fill="rgb(122,120,121)" stroke="rgb(122,120,121)" stroke-width="1" opacity="0.12941176470588237" d="M 172.5 403 L 178 404.5 L 174.5 405 L 172.5 403 Z " /><path fill="rgb(122,120,121)" stroke="rgb(122,120,121)" stroke-width="1" opacity="0.12941176470588237" d="M 283.5 403 L 282.5 405 L 275.5 409 L 276.5 407 L 283.5 403 Z " /><path fill="rgb(122,120,121)" stroke="rgb(122,120,121)" stroke-width="1" opacity="0.12941176470588237" d="M 226.5 404 L 239.5 408 L 244.5 408 L 246 407.5 Q 244.8 410.3 239.5 409 L 226.5 405 L 226.5 404 Z " /><path fill="rgb(122,120,121)" stroke="rgb(122,120,121)" stroke-width="1" opacity="0.12941176470588237" d="M 179.5 405 L 184 406.5 L 181.5 407 L 179.5 405 Z " /><path fill="rgb(122,120,121)" stroke="rgb(122,120,121)" stroke-width="1" opacity="0.12941176470588237" d="M 185.5 407 L 191 408.5 L 188.5 409 L 185.5 408 L 185.5 407 Z " /><path fill="rgb(122,120,121)" stroke="rgb(122,120,121)" stroke-width="1" opacity="0.12941176470588237" d="M 192.5 409 L 197 410.5 L 194.5 411 L 192.5 409 Z " /><path fill="rgb(122,120,121)" stroke="rgb(122,120,121)" stroke-width="1" opacity="0.12941176470588237" d="M 272.5 409 L 274 409.5 L 271.5 411 L 272.5 409 Z " /><path fill="rgb(122,120,121)" stroke="rgb(122,120,121)" stroke-width="1" opacity="0.12941176470588237" d="M 198.5 411 L 203 412.5 L 201.5 413 L 198.5 412 L 198.5 411 Z " /><path fill="rgb(122,120,121)" stroke="rgb(122,120,121)" stroke-width="1" opacity="0.12941176470588237" d="M 269.5 411 L 268.5 413 L 251.5 422 L 251.5 421 L 269.5 411 Z " /><path fill="rgb(122,120,121)" stroke="rgb(122,120,121)" stroke-width="1" opacity="0.12941176470588237" d="M 204.5 413 L 220 417.5 L 216.5 418 L 213.5 416 L 204.5 414 L 204.5 413 Z " /><path fill="rgb(122,120,121)" stroke="rgb(122,120,121)" stroke-width="1" opacity="0.12941176470588237" d="M 221.5 418 L 233 421.5 L 230.5 422 L 221.5 419 L 221.5 418 Z " /><path fill="rgb(122,120,121)" stroke="rgb(122,120,121)" stroke-width="1" opacity="0.12941176470588237" d="M 234.5 422 L 240 423.5 L 236.5 424 L 234.5 422 Z " /><path fill="rgb(122,120,121)" stroke="rgb(122,120,121)" stroke-width="1" opacity="0.12941176470588237" d="M 248.5 422 L 250 422.5 Q 248.3 424.8 243.5 424 L 243.5 423 L 248.5 422 Z " /><path fill="rgb(122,120,121)" stroke="rgb(122,120,121)" stroke-width="1" opacity="0.12941176470588237" d="M 75.5 425 L 78.5 430 L 83.5 431 L 89 427.5 L 89.5 426 L 90 427.5 Q 87.9 431.9 81.5 432 L 75 427.5 L 75.5 425 Z " /><path fill="rgb(1,0,1)" stroke="rgb(1,0,1)" stroke-width="1" opacity="0.996078431372549" d="M 257.5 70 L 281.5 70 L 301.5 74 L 317.5 80 Q 332.5 87 344.5 97 L 358 110.5 Q 371.1 125.9 379 146.5 L 385 174.5 L 385 198.5 L 384 199.5 L 383 210.5 L 377 230.5 L 362 257 Q 359.3 255.9 360 258.5 L 346.5 273 L 321.5 290 L 306.5 296 L 300.5 296 Q 295.8 294.8 297 287.5 L 300.5 284 Q 315.4 279.9 326.5 272 Q 339.5 263.5 349 251.5 L 351 248.5 Q 372 225.5 373 182.5 L 372 181.5 L 371 165.5 L 364 143.5 Q 354.6 123.9 339.5 110 Q 325.6 96.4 305.5 89 L 292.5 85 L 281.5 84 L 280.5 83 L 258.5 83 L 257.5 84 L 246.5 85 L 228.5 91 Q 209.8 98.8 197 112.5 L 195 115.5 Q 179.5 129.5 172 151.5 L 167 172.5 L 167 199.5 L 171 217.5 L 175 227.5 Q 183.6 246.4 198 259.5 L 199 264.5 L 195.5 269 L 191.5 270 Q 185.4 268.6 183 263.5 L 167 240.5 L 157 215.5 Q 157.6 209.4 155 206.5 L 155 198.5 L 154 197.5 L 154 174.5 L 155 173.5 L 155 165.5 Q 157.6 162.6 157 156.5 L 163 139.5 L 169 127.5 L 181 110 Q 183.7 111.1 183 108.5 Q 196.4 92.9 215.5 83 L 237.5 74 L 257.5 70 Z " /><path fill="rgb(1,0,1)" stroke="rgb(1,0,1)" stroke-width="1" opacity="0.996078431372549" d="M 267.5 113 Q 272.6 112.4 274 115.5 L 275 117.5 L 275 138 Q 284.1 139.8 290 145.5 Q 294.2 148.3 295 154.5 L 291.5 159 L 286 158 L 282 150 L 280 150 Q 281.1 147.3 278.5 148 Q 274 143.5 264.5 144 L 255.5 147 L 251 151.5 Q 248 155.5 249 163.5 L 252 171 L 263.5 178 Q 277.5 181 288.5 187 L 296 194.5 L 299 201.5 L 299 203.5 L 298 215.5 L 290.5 226 L 280.5 231 L 275 231 L 275 250.5 L 273 254 L 267.5 255 L 263 251.5 L 262 249.5 L 262 231.5 L 260.5 230 L 253.5 228 L 245 222 L 241 215.5 L 241 210.5 Q 242 207 247.5 208 L 252 215.5 L 257.5 221 L 263.5 224 L 272.5 225 L 281.5 222 L 286 217.5 Q 289.8 212.8 288 202.5 L 280.5 193 Q 269.8 186.7 255.5 184 Q 246.8 181.2 242 174.5 Q 237.8 169.2 238 159.5 Q 240.2 158.3 239 153.5 L 245.5 144 L 256.5 138 L 262 138 L 262 118.5 L 264.5 114 L 267.5 113 Z " /><path fill="rgb(1,0,1)" stroke="rgb(1,0,1)" stroke-width="1" opacity="0.996078431372549" d="M 80.5 239 Q 86.9 239.1 89 243.5 L 89 425.5 L 86.5 429 L 80.5 430 L 77 428 L 76 425.5 L 76 243.5 L 80.5 239 Z " /><path fill="rgb(1,0,1)" stroke="rgb(1,0,1)" stroke-width="1" opacity="0.996078431372549" d="M 119.5 257 Q 125.3 256.2 127 259.5 L 128 261.5 L 128 282.5 L 129.5 284 L 131.5 283 L 134.5 284 L 139.5 283 L 140.5 284 L 251.5 284 L 254 286.5 L 255 291.5 L 251.5 296 L 247.5 297 L 187.5 297 L 186.5 296 L 166.5 296 Q 165 298.5 159.5 297 Q 158 294.5 152.5 296 L 151.5 297 L 134.5 297 L 129.5 296 L 128 297.5 L 128 374.5 L 131.5 377 L 190.5 394 Q 203.5 400 219.5 403 L 222.5 405 L 243.5 410 L 394.5 324 L 396.5 324 L 409 314.5 Q 412.3 310.8 411 302.5 L 409 297.5 L 405.5 294 L 395.5 291 L 388.5 293 L 316.5 334 L 208.5 334 L 203 332 Q 201.4 329.9 202 324.5 L 205.5 321 L 313.5 321 L 378.5 284 Q 385.3 279.3 395.5 278 L 405.5 280 L 416 286 Q 421.3 291.9 424 301.5 L 424 311.5 Q 421.1 324.1 411.5 330 L 409.5 330 L 406.5 333 L 332.5 375 L 330.5 375 L 258.5 417 L 248.5 422 L 241.5 423 L 187.5 407 L 181.5 404 L 179.5 404 L 128 389 L 128 407.5 L 127 410 L 119.5 412 L 117 411 L 115 406.5 L 115 262.5 L 117 258 L 119.5 257 Z " /><path fill="rgb(0,0,0)" stroke="rgb(0,0,0)" stroke-width="1" opacity="0" d="M 0 0 L 500 0 L 500 500 L 0 500 L 0 0 Z M 264 68 L 264 70 L 262 69 Q 253 67 252 71 L 250 70 L 242 73 L 239 72 L 239 74 L 237 73 Q 235 77 234 74 L 218 80 L 216 83 L 215 82 L 209 85 L 207 88 L 206 87 L 200 91 L 200 93 L 196 94 L 188 102 Q 185 101 186 104 L 180 110 L 181 111 L 180 111 L 176 115 L 177 116 L 176 115 L 169 126 L 169 128 L 168 127 L 158 149 L 159 151 L 157 151 L 158 154 L 157 153 L 153 169 Q 152 173 154 175 L 152 175 L 152 197 L 154 197 L 153 199 L 154 211 L 156 211 L 155 213 L 156 219 L 158 218 L 157 220 L 158 222 Q 157 225 160 224 L 159 226 L 160 229 Q 163 230 161 232 L 162 234 L 164 235 L 163 237 L 165 236 L 164 238 L 166 239 L 165 241 L 167 240 L 166 242 L 169 248 L 171 247 L 170 249 L 171 251 L 173 250 L 172 252 L 173 254 L 175 253 L 174 255 L 176 258 L 178 257 L 177 259 L 181 261 L 184 265 L 183 266 L 188 270 L 189 269 L 189 271 L 192 270 L 195 271 L 199 269 Q 201 266 200 260 L 199 260 L 199 259 L 189 247 L 188 247 L 188 246 L 187 244 L 184 241 L 184 240 L 183 238 L 182 238 L 181 236 Q 182 233 180 234 Q 181 232 177 230 L 178 229 L 176 224 L 175 224 L 175 223 L 170 207 Q 171 200 169 201 L 169 200 L 168 182 L 167 181 L 169 180 L 169 178 Q 170 173 168 172 L 170 171 L 172 157 L 174 153 L 174 149 L 176 149 L 175 147 Q 179 146 178 142 L 178 140 L 180 140 L 181 137 L 181 135 L 183 134 L 188 127 L 189 123 L 192 121 L 196 117 L 195 116 Q 197 111 199 114 Q 201 113 199 112 L 201 112 L 206 108 Q 208 107 206 106 L 208 106 L 211 104 L 210 103 L 212 103 L 214 102 L 213 101 L 217 100 L 216 99 L 218 99 L 229 93 Q 231 94 230 92 L 232 92 L 234 91 Q 236 92 235 90 L 237 90 Q 239 91 238 89 L 240 89 L 246 87 L 251 87 L 255 85 L 284 85 L 295 88 L 298 87 L 298 89 L 301 88 L 312 94 L 314 93 L 313 95 L 316 96 L 318 95 L 317 97 L 321 98 L 323 98 L 322 100 L 326 101 Q 327 104 329 102 L 328 104 L 330 104 Q 331 107 333 106 Q 332 109 335 108 L 338 111 L 339 110 L 346 118 L 346 120 Q 345 122 348 121 L 349 124 L 351 123 L 350 125 L 351 127 L 353 126 Q 355 127 353 129 L 354 131 L 356 130 L 355 132 L 357 132 L 356 134 L 358 138 L 360 137 L 359 139 L 360 142 L 363 144 L 362 146 L 364 145 L 363 147 L 368 160 Q 367 166 370 170 L 370 179 L 372 179 L 372 193 L 370 193 L 370 203 L 367 213 L 368 215 L 366 215 L 366 219 L 362 229 L 362 231 L 361 231 L 361 233 L 360 233 L 360 235 L 359 234 L 356 240 Q 352 241 355 243 L 354 242 L 351 247 Q 347 248 350 250 Q 349 252 348 250 L 347 252 L 336 262 L 336 264 L 335 263 Q 332 264 334 266 L 333 265 Q 326 272 317 275 L 317 277 L 316 276 L 313 277 L 313 279 L 312 278 L 306 281 Q 302 280 303 283 L 302 282 L 299 283 L 299 285 Q 298 287 297 285 L 295 289 L 296 295 Q 297 297 299 295 L 298 297 L 306 298 L 307 296 L 310 297 L 309 296 L 311 296 L 315 295 L 314 294 L 316 294 L 318 293 Q 320 294 319 292 L 322 291 Q 324 292 323 290 L 325 290 L 329 288 L 328 287 L 330 287 L 332 286 L 333 284 L 335 284 L 336 282 L 338 282 L 341 280 L 340 279 L 342 279 L 351 271 Q 353 272 352 270 L 358 264 L 357 263 L 359 263 L 360 261 Q 363 259 361 258 L 363 258 Q 366 255 367 250 L 369 250 L 369 248 Q 372 246 370 245 L 372 244 L 371 243 L 373 243 L 375 237 L 375 235 L 377 235 L 376 233 L 378 232 L 379 230 L 378 228 L 380 228 L 379 225 L 381 225 L 386 205 Q 388 198 385 197 L 387 190 Q 388 181 385 177 L 386 174 L 386 172 L 384 158 L 381 148 L 380 148 L 380 147 Q 378 135 371 128 Q 372 124 369 125 L 367 120 L 366 120 L 366 119 L 364 117 Q 361 116 363 115 L 361 112 L 360 112 Q 357 111 359 110 L 356 107 L 356 106 L 354 105 L 354 104 L 352 103 L 352 101 L 349 99 L 346 96 L 345 97 L 345 96 L 342 93 Q 340 89 339 92 L 338 91 L 337 91 L 337 90 L 336 89 L 334 89 L 334 88 L 333 87 L 331 87 L 331 86 L 328 84 L 326 84 L 326 83 L 322 80 L 320 81 L 319 80 L 318 80 L 318 79 L 315 77 L 313 78 L 313 76 L 311 77 L 307 74 L 305 75 L 301 72 L 298 73 L 292 70 L 288 71 L 286 69 L 277 69 L 275 70 L 275 68 L 264 68 Z M 269 111 L 267 113 L 265 112 L 262 116 L 262 118 L 260 119 L 260 136 L 250 139 L 250 141 L 249 140 L 247 141 Q 240 145 237 154 L 237 161 L 237 163 Q 236 169 239 172 Q 238 175 241 174 L 242 177 Q 241 179 244 178 L 244 180 L 257 186 L 259 185 L 258 187 L 278 193 Q 279 196 281 194 L 284 200 L 287 201 L 286 203 L 288 211 L 286 211 L 285 215 L 286 217 L 285 216 L 284 218 L 278 222 L 274 222 L 274 224 L 272 223 L 268 224 L 268 223 L 263 221 L 261 222 L 261 221 L 258 219 L 251 209 L 250 209 L 250 208 L 248 206 L 241 207 L 239 211 L 240 218 L 242 217 L 241 219 L 242 221 L 244 220 L 243 222 L 247 225 L 248 224 Q 250 225 248 227 L 255 230 L 256 230 Q 255 232 259 231 L 260 233 L 260 249 L 262 254 L 264 253 L 263 255 Q 265 258 271 257 L 270 256 L 272 256 L 274 255 L 276 252 L 276 250 L 277 250 L 277 234 L 280 233 L 279 232 L 281 232 L 284 230 L 286 231 L 285 230 L 287 230 L 287 229 L 289 229 L 290 227 L 292 227 L 297 222 L 300 214 L 299 211 L 301 211 L 301 204 L 299 197 L 298 197 L 298 196 L 297 195 L 297 194 L 296 192 L 291 187 L 289 187 L 288 186 L 278 180 L 275 181 L 274 179 L 271 178 L 269 179 L 268 177 L 266 176 L 264 177 L 263 175 L 261 176 L 261 175 L 258 173 Q 256 169 255 172 Q 252 171 254 170 L 250 163 L 250 159 L 253 152 L 259 148 L 258 147 L 260 147 Q 264 148 263 145 L 266 146 L 271 145 L 270 147 L 275 147 L 277 147 L 276 149 L 278 149 L 282 155 L 284 155 L 283 157 L 285 156 L 284 158 Q 285 161 289 160 L 291 160 L 295 159 L 296 157 L 295 155 L 296 153 L 295 151 Q 296 147 293 148 L 293 147 Q 292 144 291 146 L 291 145 Q 290 142 289 144 L 287 142 L 282 138 L 280 139 L 280 137 L 277 137 L 277 118 L 275 118 L 276 116 L 272 112 Q 270 115 269 111 Z M 81 237 L 81 239 L 79 238 Q 74 240 77 242 L 76 241 L 74 245 L 74 424 L 75 428 L 82 432 Q 88 432 90 428 L 89 426 L 91 425 L 91 245 L 90 242 Q 88 237 87 240 L 87 239 L 81 237 Z M 118 256 L 118 258 L 114 260 L 114 272 L 115 273 L 114 278 L 114 298 L 115 299 L 115 326 L 114 327 Q 113 331 115 333 L 115 402 Q 112 403 114 410 Q 116 414 118 411 L 117 413 L 123 414 L 124 412 L 126 413 L 125 412 L 127 412 Q 129 411 127 410 L 129 410 L 128 408 L 130 408 L 130 392 L 132 392 L 135 391 L 139 394 L 141 393 L 143 395 L 153 398 L 155 397 L 155 399 L 159 398 L 159 400 L 166 402 L 168 401 L 168 403 L 172 402 L 172 404 L 175 403 L 174 405 L 193 410 L 195 409 L 194 411 L 202 413 L 204 412 L 204 414 L 209 415 L 211 414 L 210 416 L 215 417 L 217 416 L 216 418 L 240 424 L 244 424 L 248 424 L 253 422 L 271 411 L 273 411 L 274 409 L 276 409 L 280 407 L 279 406 L 281 406 L 287 403 L 286 402 L 288 402 L 296 397 Q 298 398 297 396 L 299 396 L 303 394 L 302 393 L 304 393 L 304 392 L 306 392 L 310 390 L 310 388 L 312 389 L 311 388 L 313 388 L 328 380 L 327 379 L 329 379 L 333 377 L 332 376 L 334 376 L 340 373 L 341 371 L 343 371 L 347 369 L 346 368 L 348 368 L 358 363 L 357 362 L 359 362 L 363 360 L 362 359 L 364 359 L 370 355 Q 372 356 371 354 L 373 354 L 377 352 L 378 350 L 380 350 L 386 347 L 387 345 L 389 345 L 393 343 L 392 342 L 394 342 L 400 338 Q 402 339 401 337 L 403 337 L 407 335 L 406 334 L 408 334 L 410 333 L 411 331 L 413 331 L 416 329 Q 418 328 416 327 L 418 327 L 420 324 L 420 322 L 422 322 L 421 320 L 423 319 L 422 318 L 424 318 L 425 314 L 424 310 L 426 309 L 425 299 L 423 299 L 424 296 L 422 294 L 422 293 L 420 289 Q 419 286 418 288 L 414 284 Q 413 281 412 283 L 412 282 L 403 277 L 390 277 L 379 282 L 377 285 L 376 284 L 372 286 L 372 288 L 371 287 L 370 289 L 369 288 L 363 291 L 363 293 L 361 292 L 361 294 L 360 293 L 347 300 L 347 302 L 346 301 L 340 304 L 340 306 L 338 306 Q 335 305 336 308 L 335 307 L 328 311 L 326 314 L 325 313 L 319 316 L 319 318 L 317 317 L 317 319 L 316 318 L 314 319 L 207 319 L 204 320 L 204 322 L 201 322 L 202 325 Q 199 326 200 329 L 202 330 L 201 332 L 206 335 L 208 334 L 304 334 L 305 335 L 314 335 L 315 334 L 320 335 L 319 334 L 321 334 L 321 333 L 323 333 L 334 327 L 335 325 L 337 325 L 337 324 L 339 324 L 343 322 L 342 321 L 344 321 L 344 320 L 346 320 L 357 314 L 358 312 L 360 312 L 366 308 Q 368 309 367 307 L 369 307 L 373 305 L 372 304 L 374 304 L 374 303 L 376 303 L 380 301 L 381 299 L 383 299 L 387 297 L 386 296 L 388 296 L 394 293 Q 398 294 400 292 L 400 294 L 404 295 L 408 300 L 410 307 L 408 313 L 408 315 L 404 317 L 404 319 L 403 318 L 399 320 L 399 322 L 398 321 L 397 323 Q 394 321 392 326 L 391 325 L 390 327 L 389 326 L 385 328 L 383 331 L 381 330 L 381 332 L 380 331 L 374 334 L 374 336 L 372 336 Q 369 335 370 338 L 369 337 L 367 340 L 366 339 Q 363 338 364 341 L 362 341 L 360 344 L 359 343 L 351 347 L 351 349 L 350 348 L 344 351 L 344 353 L 342 353 Q 339 352 340 355 Q 339 357 338 355 L 337 357 L 336 356 L 332 358 L 330 361 L 329 360 L 321 364 L 321 366 L 320 365 L 316 367 L 316 369 L 314 368 L 314 370 L 313 369 L 309 371 L 307 374 L 306 373 L 302 375 L 300 378 L 299 377 L 277 389 L 277 391 L 276 390 L 272 392 L 272 394 L 271 393 L 270 395 L 269 394 L 258 400 L 258 402 L 257 401 L 249 406 Q 246 405 247 408 L 245 408 L 240 408 L 229 404 L 226 405 L 225 403 L 212 399 L 210 400 L 210 399 L 203 396 L 201 397 L 195 394 Q 193 396 192 393 L 190 394 L 190 392 L 187 393 L 186 391 L 180 389 L 177 390 L 176 388 L 168 385 L 164 386 L 164 385 L 154 381 L 151 382 L 150 380 L 148 381 L 148 379 L 145 380 L 144 378 L 137 377 L 133 375 Q 131 377 130 375 L 130 298 L 251 298 L 252 296 L 254 297 L 257 292 L 255 285 L 254 285 L 252 282 L 248 283 L 130 283 L 130 282 L 130 262 L 129 260 Q 127 254 118 256 Z " /><path fill="rgb(10,8,9)" stroke="rgb(10,8,9)" stroke-width="1" opacity="0.7333333333333333" d="M 264.5 69 L 275 69.5 L 264.5 70 L 264.5 69 Z " /><path fill="rgb(10,8,9)" stroke="rgb(10,8,9)" stroke-width="1" opacity="0.7333333333333333" d="M 252.5 70 L 257 70.5 L 247.5 72 L 247.5 71 L 252.5 70 Z " /><path fill="rgb(10,8,9)" stroke="rgb(10,8,9)" stroke-width="1" opacity="0.7333333333333333" d="M 282.5 70 L 287 70.5 L 282.5 71 L 282.5 70 Z " /><path fill="rgb(10,8,9)" stroke="rgb(10,8,9)" stroke-width="1" opacity="0.7333333333333333" d="M 288.5 71 L 292 71.5 L 288.5 72 L 288.5 71 Z " /><path fill="rgb(10,8,9)" stroke="rgb(10,8,9)" stroke-width="1" opacity="0.7333333333333333" d="M 242.5 72 L 245 72.5 L 242.5 73 L 242.5 72 Z " /><path fill="rgb(10,8,9)" stroke="rgb(10,8,9)" stroke-width="1" opacity="0.7333333333333333" d="M 294.5 72 L 297 72.5 L 294.5 73 L 294.5 72 Z " /><path fill="rgb(10,8,9)" stroke="rgb(10,8,9)" stroke-width="1" opacity="0.7333333333333333" d="M 298.5 73 L 301 73.5 L 298.5 74 L 298.5 73 Z " /><path fill="rgb(10,8,9)" stroke="rgb(10,8,9)" stroke-width="1" opacity="0.7333333333333333" d="M 302.5 74 L 307 75.5 L 304.5 76 L 302.5 74 Z " /><path fill="rgb(10,8,9)" stroke="rgb(10,8,9)" stroke-width="1" opacity="0.7333333333333333" d="M 229.5 76 L 231 76.5 L 227.5 78 L 227.5 77 L 229.5 76 Z " /><path fill="rgb(10,8,9)" stroke="rgb(10,8,9)" stroke-width="1" opacity="0.7333333333333333" d="M 308.5 76 L 312 77.5 L 310.5 78 L 308.5 76 Z " /><path fill="rgb(10,8,9)" stroke="rgb(10,8,9)" stroke-width="1" opacity="0.7333333333333333" d="M 224.5 78 L 226 78.5 L 222.5 80 L 222.5 79 L 224.5 78 Z " /><path fill="rgb(10,8,9)" stroke="rgb(10,8,9)" stroke-width="1" opacity="0.7333333333333333" d="M 313.5 78 L 317 79.5 L 315.5 80 L 313.5 78 Z " /><path fill="rgb(10,8,9)" stroke="rgb(10,8,9)" stroke-width="1" opacity="0.7333333333333333" d="M 318.5 80 L 323 82.5 L 321.5 82 Q 317.7 82.5 318.5 80 Z " /><path fill="rgb(10,8,9)" stroke="rgb(10,8,9)" stroke-width="1" opacity="0.7333333333333333" d="M 217.5 81 L 219 81.5 L 216.5 83 L 217.5 81 Z " /><path fill="rgb(10,8,9)" stroke="rgb(10,8,9)" stroke-width="1" opacity="0.7333333333333333" d="M 214.5 83 L 213.5 85 L 209.5 87 L 210.5 85 L 214.5 83 Z " /><path fill="rgb(10,8,9)" stroke="rgb(10,8,9)" stroke-width="1" opacity="0.7333333333333333" d="M 258.5 83 L 281 83.5 L 258.5 84 L 258.5 83 Z " /><path fill="rgb(10,8,9)" stroke="rgb(10,8,9)" stroke-width="1" opacity="0.7333333333333333" d="M 324.5 83 L 330 86.5 L 328.5 86 Q 324.5 85.5 324.5 83 Z " /><path fill="rgb(10,8,9)" stroke="rgb(10,8,9)" stroke-width="1" opacity="0.7333333333333333" d="M 252.5 84 L 256 84.5 L 252.5 85 L 252.5 84 Z " /><path fill="rgb(10,8,9)" stroke="rgb(10,8,9)" stroke-width="1" opacity="0.7333333333333333" d="M 283.5 84 L 288 84.5 L 283.5 85 L 283.5 84 Z " /><path fill="rgb(10,8,9)" stroke="rgb(10,8,9)" stroke-width="1" opacity="0.7333333333333333" d="M 246.5 85 L 250 85.5 L 243.5 87 L 243.5 86 L 246.5 85 Z " /><path fill="rgb(10,8,9)" stroke="rgb(10,8,9)" stroke-width="1" opacity="0.7333333333333333" d="M 289.5 85 L 293 85.5 L 289.5 86 L 289.5 85 Z " /><path fill="rgb(10,8,9)" stroke="rgb(10,8,9)" stroke-width="1" opacity="0.7333333333333333" d="M 294.5 86 L 297 86.5 L 294.5 87 L 294.5 86 Z " /><path fill="rgb(10,8,9)" stroke="rgb(10,8,9)" stroke-width="1" opacity="0.7333333333333333" d="M 207.5 87 L 206.5 89 L 200.5 93 L 202.5 90 L 207.5 87 Z " /><path fill="rgb(10,8,9)" stroke="rgb(10,8,9)" stroke-width="1" opacity="0.7333333333333333" d="M 239.5 87 L 242 87.5 L 239.5 88 L 239.5 87 Z " /><path fill="rgb(10,8,9)" stroke="rgb(10,8,9)" stroke-width="1" opacity="0.7333333333333333" d="M 331.5 87 L 332.5 89 L 331.5 87 Z " /><path fill="rgb(10,8,9)" stroke="rgb(10,8,9)" stroke-width="1" opacity="0.7333333333333333" d="M 233.5 89 L 235 89.5 L 231.5 91 L 231.5 90 L 233.5 89 Z " /><path fill="rgb(10,8,9)" stroke="rgb(10,8,9)" stroke-width="1" opacity="0.7333333333333333" d="M 304.5 89 L 308 90.5 L 306.5 91 L 304.5 89 Z " /><path fill="rgb(10,8,9)" stroke="rgb(10,8,9)" stroke-width="1" opacity="0.7333333333333333" d="M 334.5 89 L 335.5 91 L 334.5 89 Z " /><path fill="rgb(10,8,9)" stroke="rgb(10,8,9)" stroke-width="1" opacity="0.7333333333333333" d="M 228.5 91 L 230 91.5 L 214.5 100 L 216.5 97 L 228.5 91 Z " /><path fill="rgb(10,8,9)" stroke="rgb(10,8,9)" stroke-width="1" opacity="0.7333333333333333" d="M 309.5 91 L 313 92.5 L 311.5 93 L 309.5 91 Z " /><path fill="rgb(10,8,9)" stroke="rgb(10,8,9)" stroke-width="1" opacity="0.7333333333333333" d="M 337.5 91 L 344 96.5 L 340.5 94 L 337.5 91 Z " /><path fill="rgb(10,8,9)" stroke="rgb(10,8,9)" stroke-width="1" opacity="0.7333333333333333" d="M 198.5 93 L 194.5 98 L 183 108.5 L 182.5 110 L 182 108.5 L 198.5 93 Z " /><path fill="rgb(10,8,9)" stroke="rgb(10,8,9)" stroke-width="1" opacity="0.7333333333333333" d="M 314.5 93 L 317 94.5 L 315.5 95 L 314.5 93 Z " /><path fill="rgb(10,8,9)" stroke="rgb(10,8,9)" stroke-width="1" opacity="0.7333333333333333" d="M 318.5 95 L 328 101.5 L 325.5 100 L 319.5 97 L 318.5 95 Z " /><path fill="rgb(10,8,9)" stroke="rgb(10,8,9)" stroke-width="1" opacity="0.7333333333333333" d="M 345.5 97 L 357.5 110 L 345.5 97 Z " /><path fill="rgb(10,8,9)" stroke="rgb(10,8,9)" stroke-width="1" opacity="0.7333333333333333" d="M 212.5 100 L 211.5 102 L 212.5 100 Z " /><path fill="rgb(10,8,9)" stroke="rgb(10,8,9)" stroke-width="1" opacity="0.7333333333333333" d="M 209.5 102 L 207.5 105 L 197.5 113 L 199.5 110 L 209.5 102 Z " /><path fill="rgb(10,8,9)" stroke="rgb(10,8,9)" stroke-width="1" opacity="0.7333333333333333" d="M 329.5 102 L 338 109.5 L 332.5 105 L 329.5 102 Z " /><path fill="rgb(10,8,9)" stroke="rgb(10,8,9)" stroke-width="1" opacity="0.7333333333333333" d="M 339.5 110 L 351 122.5 L 346 118.5 L 339.5 110 Z " /><path fill="rgb(10,8,9)" stroke="rgb(10,8,9)" stroke-width="1" opacity="0.7333333333333333" d="M 180.5 111 L 178 114.5 L 169.5 127 L 170 125.5 L 180.5 111 Z " /><path fill="rgb(10,8,9)" stroke="rgb(10,8,9)" stroke-width="1" opacity="0.7333333333333333" d="M 358.5 111 L 361.5 115 L 358.5 111 Z " /><path fill="rgb(10,8,9)" stroke="rgb(10,8,9)" stroke-width="1" opacity="0.7333333333333333" d="M 267.5 112 L 270 112.5 L 265.5 114 L 265.5 113 L 267.5 112 Z " /><path fill="rgb(10,8,9)" stroke="rgb(10,8,9)" stroke-width="1" opacity="0.7333333333333333" d="M 271.5 113 L 275 115.5 L 274.5 117 L 272.5 114 L 271.5 113 Z " /><path fill="rgb(10,8,9)" stroke="rgb(10,8,9)" stroke-width="1" opacity="0.7333333333333333" d="M 194.5 116 L 189.5 122 L 194.5 116 Z " /><path fill="rgb(10,8,9)" stroke="rgb(10,8,9)" stroke-width="1" opacity="0.7333333333333333" d="M 262.5 116 L 263 117.5 L 262 118.5 L 262 138 L 258 137.5 L 261 137 L 261 118.5 L 262.5 116 Z " /><path fill="rgb(10,8,9)" stroke="rgb(10,8,9)" stroke-width="1" opacity="0.7333333333333333" d="M 362.5 116 L 367 121.5 L 364 119.5 L 362.5 116 Z " /><path fill="rgb(10,8,9)" stroke="rgb(10,8,9)" stroke-width="1" opacity="0.7333333333333333" d="M 275.5 118 L 276 137.5 L 275 137.5 L 275.5 118 Z " /><path fill="rgb(10,8,9)" stroke="rgb(10,8,9)" stroke-width="1" opacity="0.7333333333333333" d="M 188.5 123 L 186.5 126 L 188.5 123 Z " /><path fill="rgb(10,8,9)" stroke="rgb(10,8,9)" stroke-width="1" opacity="0.7333333333333333" d="M 367.5 123 L 377 140.5 L 376 140.5 L 367.5 123 Z " /><path fill="rgb(10,8,9)" stroke="rgb(10,8,9)" stroke-width="1" opacity="0.7333333333333333" d="M 351.5 124 L 352.5 126 L 351.5 124 Z " /><path fill="rgb(10,8,9)" stroke="rgb(10,8,9)" stroke-width="1" opacity="0.7333333333333333" d="M 185.5 127 L 184.5 129 L 185.5 127 Z " /><path fill="rgb(10,8,9)" stroke="rgb(10,8,9)" stroke-width="1" opacity="0.7333333333333333" d="M 354.5 128 L 355.5 130 L 354.5 128 Z " /><path fill="rgb(10,8,9)" stroke="rgb(10,8,9)" stroke-width="1" opacity="0.7333333333333333" d="M 167.5 130 L 167 131.5 L 163.5 139 L 163 137.5 L 167.5 130 Z " /><path fill="rgb(10,8,9)" stroke="rgb(10,8,9)" stroke-width="1" opacity="0.7333333333333333" d="M 183.5 130 L 182.5 132 L 183.5 130 Z " /><path fill="rgb(10,8,9)" stroke="rgb(10,8,9)" stroke-width="1" opacity="0.7333333333333333" d="M 356.5 131 L 360 136.5 L 358 135.5 L 356.5 131 Z " /><path fill="rgb(10,8,9)" stroke="rgb(10,8,9)" stroke-width="1" opacity="0.7333333333333333" d="M 181.5 133 L 181 134.5 L 178.5 139 L 178 137.5 L 181.5 133 Z " /><path fill="rgb(10,8,9)" stroke="rgb(10,8,9)" stroke-width="1" opacity="0.7333333333333333" d="M 254.5 138 L 256 138.5 L 252.5 140 L 252.5 139 L 254.5 138 Z " /><path fill="rgb(10,8,9)" stroke="rgb(10,8,9)" stroke-width="1" opacity="0.7333333333333333" d="M 277.5 138 Q 284.6 138.9 288 143.5 L 285.5 142 L 277.5 139 L 277.5 138 Z " /><path fill="rgb(10,8,9)" stroke="rgb(10,8,9)" stroke-width="1" opacity="0.7333333333333333" d="M 162.5 140 L 163 141.5 L 161.5 144 L 161 142.5 L 162.5 140 Z " /><path fill="rgb(10,8,9)" stroke="rgb(10,8,9)" stroke-width="1" opacity="0.7333333333333333" d="M 177.5 140 L 178 141.5 L 174.5 148 L 174 146.5 L 177.5 140 Z " /><path fill="rgb(10,8,9)" stroke="rgb(10,8,9)" stroke-width="1" opacity="0.7333333333333333" d="M 361.5 140 L 364 144.5 L 363 144.5 L 361.5 140 Z " /><path fill="rgb(10,8,9)" stroke="rgb(10,8,9)" stroke-width="1" opacity="0.7333333333333333" d="M 248.5 141 L 246.5 144 L 242.5 147 L 246.5 142 L 248.5 141 Z " /><path fill="rgb(10,8,9)" stroke="rgb(10,8,9)" stroke-width="1" opacity="0.7333333333333333" d="M 377.5 142 L 379 145.5 L 378 145.5 L 377.5 142 Z " /><path fill="rgb(10,8,9)" stroke="rgb(10,8,9)" stroke-width="1" opacity="0.7333333333333333" d="M 264.5 144 L 270 144.5 L 264.5 145 L 264.5 144 Z " /><path fill="rgb(10,8,9)" stroke="rgb(10,8,9)" stroke-width="1" opacity="0.7333333333333333" d="M 160.5 145 L 161 146.5 L 159.5 149 L 159 147.5 L 160.5 145 Z " /><path fill="rgb(10,8,9)" stroke="rgb(10,8,9)" stroke-width="1" opacity="0.7333333333333333" d="M 259.5 145 L 263 145.5 L 259.5 146 L 259.5 145 Z " /><path fill="rgb(10,8,9)" stroke="rgb(10,8,9)" stroke-width="1" opacity="0.7333333333333333" d="M 271.5 145 L 274 145.5 L 271.5 146 L 271.5 145 Z " /><path fill="rgb(10,8,9)" stroke="rgb(10,8,9)" stroke-width="1" opacity="0.7333333333333333" d="M 257.5 146 L 256.5 148 L 252 151.5 L 250.5 155 L 250 153.5 L 255.5 147 L 257.5 146 Z " /><path fill="rgb(10,8,9)" stroke="rgb(10,8,9)" stroke-width="1" opacity="0.7333333333333333" d="M 275.5 146 L 280 148.5 L 278.5 149 L 275.5 146 Z " /><path fill="rgb(10,8,9)" stroke="rgb(10,8,9)" stroke-width="1" opacity="0.7333333333333333" d="M 290.5 146 Q 292.8 145.3 292 147.5 L 293.5 150 L 290.5 146 Z " /><path fill="rgb(10,8,9)" stroke="rgb(10,8,9)" stroke-width="1" opacity="0.7333333333333333" d="M 364.5 146 L 367 152.5 L 366 152.5 L 364.5 146 Z " /><path fill="rgb(10,8,9)" stroke="rgb(10,8,9)" stroke-width="1" opacity="0.7333333333333333" d="M 241.5 148 L 241 149.5 L 239.5 153 L 239 151.5 L 241.5 148 Z " /><path fill="rgb(10,8,9)" stroke="rgb(10,8,9)" stroke-width="1" opacity="0.7333333333333333" d="M 379.5 148 L 381 152.5 L 380 152.5 L 379.5 148 Z " /><path fill="rgb(10,8,9)" stroke="rgb(10,8,9)" stroke-width="1" opacity="0.7333333333333333" d="M 173.5 149 L 174 150.5 L 172.5 154 L 172 151.5 L 173.5 149 Z " /><path fill="rgb(10,8,9)" stroke="rgb(10,8,9)" stroke-width="1" opacity="0.7333333333333333" d="M 281.5 150 L 284 153.5 L 281 151.5 L 281.5 150 Z " /><path fill="rgb(10,8,9)" stroke="rgb(10,8,9)" stroke-width="1" opacity="0.7333333333333333" d="M 294.5 151 L 295 153.5 L 294 153.5 L 294.5 151 Z " /><path fill="rgb(10,8,9)" stroke="rgb(10,8,9)" stroke-width="1" opacity="0.7333333333333333" d="M 238.5 154 L 239 158.5 L 238 158.5 L 238.5 154 Z " /><path fill="rgb(10,8,9)" stroke="rgb(10,8,9)" stroke-width="1" opacity="0.7333333333333333" d="M 367.5 154 L 369 159.5 L 368 159.5 L 367.5 154 Z " /><path fill="rgb(10,8,9)" stroke="rgb(10,8,9)" stroke-width="1" opacity="0.7333333333333333" d="M 381.5 154 L 383 160.5 L 382 160.5 L 381.5 154 Z " /><path fill="rgb(10,8,9)" stroke="rgb(10,8,9)" stroke-width="1" opacity="0.7333333333333333" d="M 284.5 155 L 286 158 L 288 158.5 L 286.5 159 L 284.5 155 Z " /><path fill="rgb(10,8,9)" stroke="rgb(10,8,9)" stroke-width="1" opacity="0.7333333333333333" d="M 294.5 155 L 295 156.5 L 292 158.5 L 294.5 155 Z " /><path fill="rgb(10,8,9)" stroke="rgb(10,8,9)" stroke-width="1" opacity="0.7333333333333333" d="M 249.5 156 L 250 163.5 L 249 163.5 L 249.5 156 Z " /><path fill="rgb(10,8,9)" stroke="rgb(10,8,9)" stroke-width="1" opacity="0.7333333333333333" d="M 156.5 158 L 157 160.5 L 155.5 165 L 155 161.5 L 156.5 158 Z " /><path fill="rgb(10,8,9)" stroke="rgb(10,8,9)" stroke-width="1" opacity="0.7333333333333333" d="M 170.5 158 L 171 160.5 L 170 160.5 L 170.5 158 Z " /><path fill="rgb(10,8,9)" stroke="rgb(10,8,9)" stroke-width="1" opacity="0.7333333333333333" d="M 369.5 161 L 371 168.5 L 370 168.5 L 369.5 161 Z " /><path fill="rgb(10,8,9)" stroke="rgb(10,8,9)" stroke-width="1" opacity="0.7333333333333333" d="M 169.5 162 L 170 164.5 L 169 164.5 L 169.5 162 Z " /><path fill="rgb(10,8,9)" stroke="rgb(10,8,9)" stroke-width="1" opacity="0.7333333333333333" d="M 383.5 162 L 384 165.5 L 383 165.5 L 383.5 162 Z " /><path fill="rgb(10,8,9)" stroke="rgb(10,8,9)" stroke-width="1" opacity="0.7333333333333333" d="M 238.5 164 L 239 167.5 L 238 167.5 L 238.5 164 Z " /><path fill="rgb(10,8,9)" stroke="rgb(10,8,9)" stroke-width="1" opacity="0.7333333333333333" d="M 250.5 166 L 252 168.5 L 250 167.5 L 250.5 166 Z " /><path fill="rgb(10,8,9)" stroke="rgb(10,8,9)" stroke-width="1" opacity="0.7333333333333333" d="M 168.5 167 L 169 170.5 L 168 170.5 L 168.5 167 Z " /><path fill="rgb(10,8,9)" stroke="rgb(10,8,9)" stroke-width="1" opacity="0.7333333333333333" d="M 384.5 167 L 385 173.5 L 384 173.5 L 384.5 167 Z " /><path fill="rgb(10,8,9)" stroke="rgb(10,8,9)" stroke-width="1" opacity="0.7333333333333333" d="M 154.5 168 L 155 173.5 L 154 173.5 L 154.5 168 Z " /><path fill="rgb(10,8,9)" stroke="rgb(10,8,9)" stroke-width="1" opacity="0.7333333333333333" d="M 239.5 169 L 242 173.5 L 240 172.5 L 239.5 169 Z " /><path fill="rgb(10,8,9)" stroke="rgb(10,8,9)" stroke-width="1" opacity="0.7333333333333333" d="M 167.5 172 L 168 179.5 L 167 179.5 L 167.5 172 Z " /><path fill="rgb(10,8,9)" stroke="rgb(10,8,9)" stroke-width="1" opacity="0.7333333333333333" d="M 255.5 172 L 260 175.5 L 258.5 175 L 255.5 172 Z " /><path fill="rgb(10,8,9)" stroke="rgb(10,8,9)" stroke-width="1" opacity="0.7333333333333333" d="M 371.5 172 L 372 178.5 L 371 178.5 L 371.5 172 Z " /><path fill="rgb(10,8,9)" stroke="rgb(10,8,9)" stroke-width="1" opacity="0.7333333333333333" d="M 153.5 175 L 154 196.5 L 153 196.5 L 153.5 175 Z " /><path fill="rgb(10,8,9)" stroke="rgb(10,8,9)" stroke-width="1" opacity="0.7333333333333333" d="M 242.5 175 L 246.5 180 L 242.5 175 Z " /><path fill="rgb(10,8,9)" stroke="rgb(10,8,9)" stroke-width="1" opacity="0.7333333333333333" d="M 261.5 176 L 265 177.5 L 263.5 178 L 261.5 176 Z " /><path fill="rgb(10,8,9)" stroke="rgb(10,8,9)" stroke-width="1" opacity="0.7333333333333333" d="M 385.5 177 L 386 193.5 L 385 193.5 L 385.5 177 Z " /><path fill="rgb(10,8,9)" stroke="rgb(10,8,9)" stroke-width="1" opacity="0.7333333333333333" d="M 248.5 180 L 251 181.5 L 249.5 182 L 248.5 180 Z " /><path fill="rgb(10,8,9)" stroke="rgb(10,8,9)" stroke-width="1" opacity="0.7333333333333333" d="M 252.5 182 L 255 183.5 L 253.5 184 L 252.5 182 Z " /><path fill="rgb(10,8,9)" stroke="rgb(10,8,9)" stroke-width="1" opacity="0.7333333333333333" d="M 278.5 182 L 282 183.5 L 280.5 184 L 278.5 182 Z " /><path fill="rgb(10,8,9)" stroke="rgb(10,8,9)" stroke-width="1" opacity="0.7333333333333333" d="M 372.5 182 L 373 189.5 L 372 189.5 L 372.5 182 Z " /><path fill="rgb(10,8,9)" stroke="rgb(10,8,9)" stroke-width="1" opacity="0.7333333333333333" d="M 259.5 185 L 277 191.5 L 275.5 192 L 261.5 187 L 259.5 185 Z " /><path fill="rgb(10,8,9)" stroke="rgb(10,8,9)" stroke-width="1" opacity="0.7333333333333333" d="M 285.5 185 L 288 186.5 L 286.5 186 L 285.5 185 Z " /><path fill="rgb(10,8,9)" stroke="rgb(10,8,9)" stroke-width="1" opacity="0.7333333333333333" d="M 289.5 187 L 294 190 L 296 193.5 L 289.5 187 Z " /><path fill="rgb(10,8,9)" stroke="rgb(10,8,9)" stroke-width="1" opacity="0.7333333333333333" d="M 278.5 192 L 286 198.5 L 280.5 194 L 278.5 192 Z " /><path fill="rgb(10,8,9)" stroke="rgb(10,8,9)" stroke-width="1" opacity="0.7333333333333333" d="M 167.5 193 L 168 199.5 L 167 199.5 L 167.5 193 Z " /><path fill="rgb(10,8,9)" stroke="rgb(10,8,9)" stroke-width="1" opacity="0.7333333333333333" d="M 371.5 193 L 372 199.5 L 371 199.5 L 371.5 193 Z " /><path fill="rgb(10,8,9)" stroke="rgb(10,8,9)" stroke-width="1" opacity="0.7333333333333333" d="M 154.5 198 L 155 203.5 L 154 203.5 L 154.5 198 Z " /><path fill="rgb(10,8,9)" stroke="rgb(10,8,9)" stroke-width="1" opacity="0.7333333333333333" d="M 384.5 199 L 385 204.5 L 384 204.5 L 384.5 199 Z " /><path fill="rgb(10,8,9)" stroke="rgb(10,8,9)" stroke-width="1" opacity="0.7333333333333333" d="M 168.5 201 L 169 204.5 L 168 204.5 L 168.5 201 Z " /><path fill="rgb(10,8,9)" stroke="rgb(10,8,9)" stroke-width="1" opacity="0.7333333333333333" d="M 287.5 202 L 288 204.5 L 287 204.5 L 287.5 202 Z " /><path fill="rgb(10,8,9)" stroke="rgb(10,8,9)" stroke-width="1" opacity="0.7333333333333333" d="M 370.5 203 L 371 206.5 L 369.5 210 L 369 207.5 L 370.5 203 Z " /><path fill="rgb(10,8,9)" stroke="rgb(10,8,9)" stroke-width="1" opacity="0.7333333333333333" d="M 299.5 204 L 300 209.5 L 299 209.5 L 299.5 204 Z " /><path fill="rgb(10,8,9)" stroke="rgb(10,8,9)" stroke-width="1" opacity="0.7333333333333333" d="M 383.5 206 L 384 209.5 L 383 209.5 L 383.5 206 Z " /><path fill="rgb(10,8,9)" stroke="rgb(10,8,9)" stroke-width="1" opacity="0.7333333333333333" d="M 155.5 207 L 156 209.5 L 155 209.5 L 155.5 207 Z " /><path fill="rgb(10,8,9)" stroke="rgb(10,8,9)" stroke-width="1" opacity="0.7333333333333333" d="M 169.5 207 L 170 209.5 L 169 209.5 L 169.5 207 Z " /><path fill="rgb(10,8,9)" stroke="rgb(10,8,9)" stroke-width="1" opacity="0.7333333333333333" d="M 243.5 207 Q 250 206 251 210.5 Q 252.5 217 257.5 220 L 260 221.5 L 258.5 221 L 252 215.5 L 247.5 208 Q 242 207 241 210.5 Q 239.8 215.2 242 216.5 L 240 215.5 Q 238.8 208.3 243.5 207 Z " /><path fill="rgb(10,8,9)" stroke="rgb(10,8,9)" stroke-width="1" opacity="0.7333333333333333" d="M 156.5 211 L 157 213.5 L 156 213.5 L 156.5 211 Z " /><path fill="rgb(10,8,9)" stroke="rgb(10,8,9)" stroke-width="1" opacity="0.7333333333333333" d="M 170.5 211 L 171 213.5 L 170 213.5 L 170.5 211 Z " /><path fill="rgb(10,8,9)" stroke="rgb(10,8,9)" stroke-width="1" opacity="0.7333333333333333" d="M 287.5 211 L 288 213.5 L 286.5 216 L 286 214.5 L 287.5 211 Z " /><path fill="rgb(10,8,9)" stroke="rgb(10,8,9)" stroke-width="1" opacity="0.7333333333333333" d="M 382.5 211 L 383 214.5 L 381.5 218 L 381 215.5 L 382.5 211 Z " /><path fill="rgb(10,8,9)" stroke="rgb(10,8,9)" stroke-width="1" opacity="0.7333333333333333" d="M 298.5 212 L 299 214.5 L 298 214.5 L 298.5 212 Z " /><path fill="rgb(10,8,9)" stroke="rgb(10,8,9)" stroke-width="1" opacity="0.7333333333333333" d="M 368.5 212 L 369 214.5 L 365.5 223 L 365 221.5 L 368.5 212 Z " /><path fill="rgb(10,8,9)" stroke="rgb(10,8,9)" stroke-width="1" opacity="0.7333333333333333" d="M 171.5 215 L 173 219.5 L 172 219.5 L 171.5 215 Z " /><path fill="rgb(10,8,9)" stroke="rgb(10,8,9)" stroke-width="1" opacity="0.7333333333333333" d="M 157.5 216 L 159 220.5 L 158 220.5 L 157.5 216 Z " /><path fill="rgb(10,8,9)" stroke="rgb(10,8,9)" stroke-width="1" opacity="0.7333333333333333" d="M 297.5 216 L 298 217.5 L 291.5 226 L 294 222.5 L 297.5 216 Z " /><path fill="rgb(10,8,9)" stroke="rgb(10,8,9)" stroke-width="1" opacity="0.7333333333333333" d="M 285.5 217 L 281.5 222 L 278.5 223 L 278.5 222 L 285.5 217 Z " /><path fill="rgb(10,8,9)" stroke="rgb(10,8,9)" stroke-width="1" opacity="0.7333333333333333" d="M 242.5 218 L 245 222 L 255 228.5 L 253.5 229 L 244 221.5 L 242.5 218 Z " /><path fill="rgb(10,8,9)" stroke="rgb(10,8,9)" stroke-width="1" opacity="0.7333333333333333" d="M 380.5 219 L 381 221.5 L 379.5 224 L 379 222.5 L 380.5 219 Z " /><path fill="rgb(10,8,9)" stroke="rgb(10,8,9)" stroke-width="1" opacity="0.7333333333333333" d="M 261.5 222 L 267 223.5 L 263.5 224 L 261.5 222 Z " /><path fill="rgb(10,8,9)" stroke="rgb(10,8,9)" stroke-width="1" opacity="0.7333333333333333" d="M 274.5 223 L 277 223.5 L 274.5 224 L 274.5 223 Z " /><path fill="rgb(10,8,9)" stroke="rgb(10,8,9)" stroke-width="1" opacity="0.7333333333333333" d="M 269.5 224 L 273 224.5 L 269.5 225 L 269.5 224 Z " /><path fill="rgb(10,8,9)" stroke="rgb(10,8,9)" stroke-width="1" opacity="0.7333333333333333" d="M 364.5 224 L 365 225.5 L 362.5 230 L 362 228.5 L 364.5 224 Z " /><path fill="rgb(10,8,9)" stroke="rgb(10,8,9)" stroke-width="1" opacity="0.7333333333333333" d="M 175.5 226 L 180 234.5 L 178 233.5 L 175.5 226 Z " /><path fill="rgb(10,8,9)" stroke="rgb(10,8,9)" stroke-width="1" opacity="0.7333333333333333" d="M 289.5 226 L 288.5 228 L 286.5 229 L 287.5 227 L 289.5 226 Z " /><path fill="rgb(10,8,9)" stroke="rgb(10,8,9)" stroke-width="1" opacity="0.7333333333333333" d="M 161.5 228 L 163 231.5 L 162 231.5 L 161.5 228 Z " /><path fill="rgb(10,8,9)" stroke="rgb(10,8,9)" stroke-width="1" opacity="0.7333333333333333" d="M 256.5 229 L 262 231.5 L 262 249.5 L 265.5 254 L 269.5 255 L 271.5 254 L 271.5 255 L 267.5 256 L 262 251.5 L 261 249.5 L 261 231 Q 255.8 231.3 256.5 229 Z " /><path fill="rgb(10,8,9)" stroke="rgb(10,8,9)" stroke-width="1" opacity="0.7333333333333333" d="M 275 231 L 279 231.5 L 276 232 L 275.5 250 L 275 231 Z " /><path fill="rgb(10,8,9)" stroke="rgb(10,8,9)" stroke-width="1" opacity="0.7333333333333333" d="M 361.5 231 L 362 232.5 L 360 233.5 L 361.5 231 Z " /><path fill="rgb(10,8,9)" stroke="rgb(10,8,9)" stroke-width="1" opacity="0.7333333333333333" d="M 376.5 231 L 376 232.5 L 375.5 234 L 375 232.5 L 376.5 231 Z " /><path fill="rgb(10,8,9)" stroke="rgb(10,8,9)" stroke-width="1" opacity="0.7333333333333333" d="M 359.5 235 L 359 236.5 L 355.5 242 L 356 240.5 L 359.5 235 Z " /><path fill="rgb(10,8,9)" stroke="rgb(10,8,9)" stroke-width="1" opacity="0.7333333333333333" d="M 374.5 235 L 375 236.5 L 371.5 242 L 372 240.5 L 374.5 235 Z " /><path fill="rgb(10,8,9)" stroke="rgb(10,8,9)" stroke-width="1" opacity="0.7333333333333333" d="M 81.5 238 L 89 241.5 L 88.5 243 Q 86.7 239.3 81.5 239 L 81.5 238 Z " /><path fill="rgb(10,8,9)" stroke="rgb(10,8,9)" stroke-width="1" opacity="0.7333333333333333" d="M 181.5 238 L 184 241.5 L 182 240.5 L 181.5 238 Z " /><path fill="rgb(10,8,9)" stroke="rgb(10,8,9)" stroke-width="1" opacity="0.7333333333333333" d="M 79.5 239 L 76.5 243 L 77 241.5 Q 76.3 239.3 78.5 240 L 79.5 239 Z " /><path fill="rgb(10,8,9)" stroke="rgb(10,8,9)" stroke-width="1" opacity="0.7333333333333333" d="M 167.5 241 L 171 246.5 L 169 245.5 L 167.5 241 Z " /><path fill="rgb(10,8,9)" stroke="rgb(10,8,9)" stroke-width="1" opacity="0.7333333333333333" d="M 184.5 243 L 186.5 246 L 184.5 243 Z " /><path fill="rgb(10,8,9)" stroke="rgb(10,8,9)" stroke-width="1" opacity="0.7333333333333333" d="M 354.5 243 L 353 245.5 L 350.5 250 L 350 248.5 L 354.5 243 Z " /><path fill="rgb(10,8,9)" stroke="rgb(10,8,9)" stroke-width="1" opacity="0.7333333333333333" d="M 370.5 243 L 370 244.5 L 364.5 253 L 366 250.5 L 370.5 243 Z " /><path fill="rgb(10,8,9)" stroke="rgb(10,8,9)" stroke-width="1" opacity="0.7333333333333333" d="M 75.5 244 L 76 424.5 L 75 424.5 L 75.5 244 Z " /><path fill="rgb(10,8,9)" stroke="rgb(10,8,9)" stroke-width="1" opacity="0.7333333333333333" d="M 89.5 244 L 90 424.5 L 89 424.5 L 89.5 244 Z " /><path fill="rgb(10,8,9)" stroke="rgb(10,8,9)" stroke-width="1" opacity="0.7333333333333333" d="M 187.5 247 L 198 258.5 L 190 251.5 L 187.5 247 Z " /><path fill="rgb(10,8,9)" stroke="rgb(10,8,9)" stroke-width="1" opacity="0.7333333333333333" d="M 171.5 248 L 172.5 250 L 171.5 248 Z " /><path fill="rgb(10,8,9)" stroke="rgb(10,8,9)" stroke-width="1" opacity="0.7333333333333333" d="M 173.5 251 L 178 256.5 L 175 254.5 L 173.5 251 Z " /><path fill="rgb(10,8,9)" stroke="rgb(10,8,9)" stroke-width="1" opacity="0.7333333333333333" d="M 274.5 251 L 275 252.5 L 273 253.5 L 274.5 251 Z " /><path fill="rgb(10,8,9)" stroke="rgb(10,8,9)" stroke-width="1" opacity="0.7333333333333333" d="M 348.5 251 L 333.5 267 L 330.5 269 L 332.5 266 L 348.5 251 Z " /><path fill="rgb(10,8,9)" stroke="rgb(10,8,9)" stroke-width="1" opacity="0.7333333333333333" d="M 363.5 254 L 362.5 256 L 363.5 254 Z " /><path fill="rgb(10,8,9)" stroke="rgb(10,8,9)" stroke-width="1" opacity="0.7333333333333333" d="M 120.5 256 L 123 256.5 L 120.5 257 L 120.5 256 Z " /><path fill="rgb(10,8,9)" stroke="rgb(10,8,9)" stroke-width="1" opacity="0.7333333333333333" d="M 124.5 257 L 128 259.5 L 129 261.5 L 129 283 L 131 283.5 L 129.5 284 L 128 282.5 L 128 261.5 L 125.5 258 L 124.5 257 Z " /><path fill="rgb(10,8,9)" stroke="rgb(10,8,9)" stroke-width="1" opacity="0.7333333333333333" d="M 360.5 257 L 361 258.5 L 356 262.5 L 360.5 257 Z " /><path fill="rgb(10,8,9)" stroke="rgb(10,8,9)" stroke-width="1" opacity="0.7333333333333333" d="M 178.5 258 L 182.5 263 L 178.5 258 Z " /><path fill="rgb(10,8,9)" stroke="rgb(10,8,9)" stroke-width="1" opacity="0.7333333333333333" d="M 116.5 259 L 116 260.5 L 115.5 262 L 115 260.5 L 116.5 259 Z " /><path fill="rgb(10,8,9)" stroke="rgb(10,8,9)" stroke-width="1" opacity="0.7333333333333333" d="M 355.5 264 L 347.5 273 L 355.5 264 Z " /><path fill="rgb(10,8,9)" stroke="rgb(10,8,9)" stroke-width="1" opacity="0.7333333333333333" d="M 184.5 265 L 187.5 269 L 184.5 265 Z " /><path fill="rgb(10,8,9)" stroke="rgb(10,8,9)" stroke-width="1" opacity="0.7333333333333333" d="M 198.5 265 L 199 266.5 Q 198.5 270.5 193.5 270 L 193.5 269 Q 197.5 269.5 198 266.5 L 198.5 265 Z " /><path fill="rgb(10,8,9)" stroke="rgb(10,8,9)" stroke-width="1" opacity="0.7333333333333333" d="M 328.5 269 L 326.5 272 L 324.5 273 L 325.5 271 L 328.5 269 Z " /><path fill="rgb(10,8,9)" stroke="rgb(10,8,9)" stroke-width="1" opacity="0.7333333333333333" d="M 322.5 273 L 321.5 275 L 319.5 276 L 320.5 274 L 322.5 273 Z " /><path fill="rgb(10,8,9)" stroke="rgb(10,8,9)" stroke-width="1" opacity="0.7333333333333333" d="M 345.5 273 L 341.5 278 L 345.5 273 Z " /><path fill="rgb(10,8,9)" stroke="rgb(10,8,9)" stroke-width="1" opacity="0.7333333333333333" d="M 317.5 276 L 316.5 278 L 315 277.5 L 317.5 276 Z " /><path fill="rgb(10,8,9)" stroke="rgb(10,8,9)" stroke-width="1" opacity="0.7333333333333333" d="M 114.5 277 L 115 297.5 L 114 297.5 L 114.5 277 Z " /><path fill="rgb(10,8,9)" stroke="rgb(10,8,9)" stroke-width="1" opacity="0.7333333333333333" d="M 339.5 278 L 337.5 281 L 329.5 286 L 330.5 284 L 339.5 278 Z " /><path fill="rgb(10,8,9)" stroke="rgb(10,8,9)" stroke-width="1" opacity="0.7333333333333333" d="M 390.5 278 L 394 278.5 L 390.5 279 L 390.5 278 Z " /><path fill="rgb(10,8,9)" stroke="rgb(10,8,9)" stroke-width="1" opacity="0.7333333333333333" d="M 396.5 278 L 402 278.5 L 396.5 279 L 396.5 278 Z " /><path fill="rgb(10,8,9)" stroke="rgb(10,8,9)" stroke-width="1" opacity="0.7333333333333333" d="M 384.5 280 L 386 280.5 L 379.5 284 L 380.5 282 L 384.5 280 Z " /><path fill="rgb(10,8,9)" stroke="rgb(10,8,9)" stroke-width="1" opacity="0.7333333333333333" d="M 406.5 280 L 411 282.5 L 409.5 282 Q 405.7 282.5 406.5 280 Z " /><path fill="rgb(10,8,9)" stroke="rgb(10,8,9)" stroke-width="1" opacity="0.7333333333333333" d="M 303.5 282 L 305 282.5 Q 299.8 283.3 297.5 287 L 300.5 283 L 303.5 282 Z " /><path fill="rgb(10,8,9)" stroke="rgb(10,8,9)" stroke-width="1" opacity="0.7333333333333333" d="M 132.5 283 L 135 283.5 L 132.5 284 L 132.5 283 Z " /><path fill="rgb(10,8,9)" stroke="rgb(10,8,9)" stroke-width="1" opacity="0.7333333333333333" d="M 140.5 283 L 251.5 283 L 255 286.5 L 256 291.5 L 252.5 296 L 254 293.5 L 255 288.5 L 251.5 284 L 140.5 284 L 140.5 283 Z " /><path fill="rgb(10,8,9)" stroke="rgb(10,8,9)" stroke-width="1" opacity="0.7333333333333333" d="M 412.5 283 L 414.5 286 L 412.5 283 Z " /><path fill="rgb(10,8,9)" stroke="rgb(10,8,9)" stroke-width="1" opacity="0.7333333333333333" d="M 377.5 284 L 376.5 286 L 372.5 288 L 373.5 286 L 377.5 284 Z " /><path fill="rgb(10,8,9)" stroke="rgb(10,8,9)" stroke-width="1" opacity="0.7333333333333333" d="M 327.5 286 L 326.5 288 L 322.5 290 L 323.5 288 L 327.5 286 Z " /><path fill="rgb(10,8,9)" stroke="rgb(10,8,9)" stroke-width="1" opacity="0.7333333333333333" d="M 416.5 287 L 421 292.5 L 419 291.5 L 416.5 287 Z " /><path fill="rgb(10,8,9)" stroke="rgb(10,8,9)" stroke-width="1" opacity="0.7333333333333333" d="M 296.5 288 L 297 291.5 L 296 291.5 L 296.5 288 Z " /><path fill="rgb(10,8,9)" stroke="rgb(10,8,9)" stroke-width="1" opacity="0.7333333333333333" d="M 368.5 289 L 367.5 291 L 363.5 293 L 364.5 291 L 368.5 289 Z " /><path fill="rgb(10,8,9)" stroke="rgb(10,8,9)" stroke-width="1" opacity="0.7333333333333333" d="M 319.5 290 L 321 290.5 L 310.5 295 L 310.5 294 L 319.5 290 Z " /><path fill="rgb(10,8,9)" stroke="rgb(10,8,9)" stroke-width="1" opacity="0.7333333333333333" d="M 390.5 292 L 393 292.5 L 387.5 295 L 388.5 293 L 390.5 292 Z " /><path fill="rgb(10,8,9)" stroke="rgb(10,8,9)" stroke-width="1" opacity="0.7333333333333333" d="M 400.5 292 Q 406.3 293.3 409 297.5 L 408.5 299 L 405.5 295 L 400.5 293 L 400.5 292 Z " /><path fill="rgb(10,8,9)" stroke="rgb(10,8,9)" stroke-width="1" opacity="0.7333333333333333" d="M 297.5 293 Q 299.3 297.3 306 296.5 L 300.5 297 L 297.5 293 Z " /><path fill="rgb(10,8,9)" stroke="rgb(10,8,9)" stroke-width="1" opacity="0.7333333333333333" d="M 361.5 293 L 360.5 295 L 356.5 297 L 357.5 295 L 361.5 293 Z " /><path fill="rgb(10,8,9)" stroke="rgb(10,8,9)" stroke-width="1" opacity="0.7333333333333333" d="M 385.5 295 L 384.5 297 L 380.5 299 L 381.5 297 L 385.5 295 Z " /><path fill="rgb(10,8,9)" stroke="rgb(10,8,9)" stroke-width="1" opacity="0.7333333333333333" d="M 129.5 296 L 134 296.5 L 129 297 L 129 374.5 L 130.5 375 L 134 376.5 L 131.5 377 L 128 374.5 L 128 297.5 L 129.5 296 Z " /><path fill="rgb(10,8,9)" stroke="rgb(10,8,9)" stroke-width="1" opacity="0.7333333333333333" d="M 152.5 296 L 159 296.5 L 152.5 297 L 152.5 296 Z " /><path fill="rgb(10,8,9)" stroke="rgb(10,8,9)" stroke-width="1" opacity="0.7333333333333333" d="M 166.5 296 L 187 296.5 L 166.5 297 L 166.5 296 Z " /><path fill="rgb(10,8,9)" stroke="rgb(10,8,9)" stroke-width="1" opacity="0.7333333333333333" d="M 248.5 296 L 251 296.5 L 248.5 297 L 248.5 296 Z " /><path fill="rgb(10,8,9)" stroke="rgb(10,8,9)" stroke-width="1" opacity="0.7333333333333333" d="M 352.5 298 L 351.5 300 L 349.5 301 L 350.5 299 L 352.5 298 Z " /><path fill="rgb(10,8,9)" stroke="rgb(10,8,9)" stroke-width="1" opacity="0.7333333333333333" d="M 378.5 299 L 377.5 301 L 373.5 303 L 374.5 301 L 378.5 299 Z " /><path fill="rgb(10,8,9)" stroke="rgb(10,8,9)" stroke-width="1" opacity="0.7333333333333333" d="M 409.5 300 Q 412.5 303 411 310.5 L 404.5 319 L 408 314.5 Q 411.3 310.8 410 302.5 L 409.5 300 Z " /><path fill="rgb(10,8,9)" stroke="rgb(10,8,9)" stroke-width="1" opacity="0.7333333333333333" d="M 343.5 303 L 342.5 305 L 340.5 306 L 341.5 304 L 343.5 303 Z " /><path fill="rgb(10,8,9)" stroke="rgb(10,8,9)" stroke-width="1" opacity="0.7333333333333333" d="M 371.5 303 L 370.5 305 L 366.5 307 L 367.5 305 L 371.5 303 Z " /><path fill="rgb(10,8,9)" stroke="rgb(10,8,9)" stroke-width="1" opacity="0.7333333333333333" d="M 424.5 304 L 425 308.5 L 424 308.5 L 424.5 304 Z " /><path fill="rgb(10,8,9)" stroke="rgb(10,8,9)" stroke-width="1" opacity="0.7333333333333333" d="M 336.5 307 L 335.5 309 L 333.5 310 L 334.5 308 L 336.5 307 Z " /><path fill="rgb(10,8,9)" stroke="rgb(10,8,9)" stroke-width="1" opacity="0.7333333333333333" d="M 364.5 307 L 363.5 309 L 359.5 311 L 360.5 309 L 364.5 307 Z " /><path fill="rgb(10,8,9)" stroke="rgb(10,8,9)" stroke-width="1" opacity="0.7333333333333333" d="M 331.5 310 L 330.5 312 L 319.5 318 L 320.5 316 L 331.5 310 Z " /><path fill="rgb(10,8,9)" stroke="rgb(10,8,9)" stroke-width="1" opacity="0.7333333333333333" d="M 357.5 311 L 356.5 313 L 354.5 314 L 355.5 312 L 357.5 311 Z " /><path fill="rgb(10,8,9)" stroke="rgb(10,8,9)" stroke-width="1" opacity="0.7333333333333333" d="M 423.5 312 L 424 314.5 L 422.5 317 L 422 315.5 L 423.5 312 Z " /><path fill="rgb(10,8,9)" stroke="rgb(10,8,9)" stroke-width="1" opacity="0.7333333333333333" d="M 351.5 314 L 353 314.5 L 345.5 319 L 346.5 317 L 351.5 314 Z " /><path fill="rgb(10,8,9)" stroke="rgb(10,8,9)" stroke-width="1" opacity="0.7333333333333333" d="M 317.5 318 L 316.5 320 L 315 319.5 L 317.5 318 Z " /><path fill="rgb(10,8,9)" stroke="rgb(10,8,9)" stroke-width="1" opacity="0.7333333333333333" d="M 402.5 319 L 401.5 321 L 399.5 322 L 400.5 320 L 402.5 319 Z " /><path fill="rgb(10,8,9)" stroke="rgb(10,8,9)" stroke-width="1" opacity="0.7333333333333333" d="M 205.5 320 L 314 320.5 L 205.5 321 L 202.5 324 L 205.5 320 Z " /><path fill="rgb(10,8,9)" stroke="rgb(10,8,9)" stroke-width="1" opacity="0.7333333333333333" d="M 341.5 320 L 340.5 322 L 336.5 324 L 337.5 322 L 341.5 320 Z " /><path fill="rgb(10,8,9)" stroke="rgb(10,8,9)" stroke-width="1" opacity="0.7333333333333333" d="M 397.5 322 L 396.5 324 L 395 323.5 L 397.5 322 Z " /><path fill="rgb(10,8,9)" stroke="rgb(10,8,9)" stroke-width="1" opacity="0.7333333333333333" d="M 419.5 322 L 412.5 330 L 419.5 322 Z " /><path fill="rgb(10,8,9)" stroke="rgb(10,8,9)" stroke-width="1" opacity="0.7333333333333333" d="M 334.5 324 L 333.5 326 L 329.5 328 L 330.5 326 L 334.5 324 Z " /><path fill="rgb(10,8,9)" stroke="rgb(10,8,9)" stroke-width="1" opacity="0.7333333333333333" d="M 393.5 324 L 392.5 326 L 393.5 324 Z " /><path fill="rgb(10,8,9)" stroke="rgb(10,8,9)" stroke-width="1" opacity="0.7333333333333333" d="M 201.5 325 L 202 328.5 L 201 328.5 L 201.5 325 Z " /><path fill="rgb(10,8,9)" stroke="rgb(10,8,9)" stroke-width="1" opacity="0.7333333333333333" d="M 114.5 326 L 115 331.5 L 114 331.5 L 114.5 326 Z " /><path fill="rgb(10,8,9)" stroke="rgb(10,8,9)" stroke-width="1" opacity="0.7333333333333333" d="M 388.5 327 L 387.5 329 L 383.5 331 L 384.5 329 L 388.5 327 Z " /><path fill="rgb(10,8,9)" stroke="rgb(10,8,9)" stroke-width="1" opacity="0.7333333333333333" d="M 327.5 328 L 326.5 330 L 317.5 334 L 317.5 333 L 327.5 328 Z " /><path fill="rgb(10,8,9)" stroke="rgb(10,8,9)" stroke-width="1" opacity="0.7333333333333333" d="M 409.5 330 L 411 330.5 L 407.5 333 L 409.5 330 Z " /><path fill="rgb(10,8,9)" stroke="rgb(10,8,9)" stroke-width="1" opacity="0.7333333333333333" d="M 203.5 332 L 208 333.5 L 205.5 334 L 203.5 332 Z " /><path fill="rgb(10,8,9)" stroke="rgb(10,8,9)" stroke-width="1" opacity="0.7333333333333333" d="M 379.5 332 L 378.5 334 L 374.5 336 L 375.5 334 L 379.5 332 Z " /><path fill="rgb(10,8,9)" stroke="rgb(10,8,9)" stroke-width="1" opacity="0.7333333333333333" d="M 405.5 333 L 404.5 335 L 400.5 337 L 401.5 335 L 405.5 333 Z " /><path fill="rgb(10,8,9)" stroke="rgb(10,8,9)" stroke-width="1" opacity="0.7333333333333333" d="M 370.5 337 L 369.5 339 L 365.5 341 L 365.5 340 L 370.5 337 Z " /><path fill="rgb(10,8,9)" stroke="rgb(10,8,9)" stroke-width="1" opacity="0.7333333333333333" d="M 398.5 337 L 397.5 339 L 393.5 341 L 394.5 339 L 398.5 337 Z " /><path fill="rgb(10,8,9)" stroke="rgb(10,8,9)" stroke-width="1" opacity="0.7333333333333333" d="M 363.5 341 L 362.5 343 L 360.5 344 L 361.5 342 L 363.5 341 Z " /><path fill="rgb(10,8,9)" stroke="rgb(10,8,9)" stroke-width="1" opacity="0.7333333333333333" d="M 391.5 341 L 390.5 343 L 386.5 345 L 387.5 343 L 391.5 341 Z " /><path fill="rgb(10,8,9)" stroke="rgb(10,8,9)" stroke-width="1" opacity="0.7333333333333333" d="M 358.5 344 L 357.5 346 L 351.5 349 L 352.5 347 L 358.5 344 Z " /><path fill="rgb(10,8,9)" stroke="rgb(10,8,9)" stroke-width="1" opacity="0.7333333333333333" d="M 384.5 345 L 383.5 347 L 370.5 354 L 371.5 352 L 384.5 345 Z " /><path fill="rgb(10,8,9)" stroke="rgb(10,8,9)" stroke-width="1" opacity="0.7333333333333333" d="M 349.5 349 L 348.5 351 L 344.5 353 L 345.5 351 L 349.5 349 Z " /><path fill="rgb(10,8,9)" stroke="rgb(10,8,9)" stroke-width="1" opacity="0.7333333333333333" d="M 342.5 353 L 341.5 355 L 339.5 356 L 340.5 354 L 342.5 353 Z " /><path fill="rgb(10,8,9)" stroke="rgb(10,8,9)" stroke-width="1" opacity="0.7333333333333333" d="M 368.5 354 L 367.5 356 L 363.5 358 L 364.5 356 L 368.5 354 Z " /><path fill="rgb(10,8,9)" stroke="rgb(10,8,9)" stroke-width="1" opacity="0.7333333333333333" d="M 333.5 358 L 332.5 360 L 330.5 361 L 331.5 359 L 333.5 358 Z " /><path fill="rgb(10,8,9)" stroke="rgb(10,8,9)" stroke-width="1" opacity="0.7333333333333333" d="M 361.5 358 L 360.5 360 L 356.5 362 L 357.5 360 L 361.5 358 Z " /><path fill="rgb(10,8,9)" stroke="rgb(10,8,9)" stroke-width="1" opacity="0.7333333333333333" d="M 326.5 362 L 325.5 364 L 316.5 369 L 317.5 367 L 326.5 362 Z " /><path fill="rgb(10,8,9)" stroke="rgb(10,8,9)" stroke-width="1" opacity="0.7333333333333333" d="M 354.5 362 L 353.5 364 L 349.5 366 L 350.5 364 L 354.5 362 Z " /><path fill="rgb(10,8,9)" stroke="rgb(10,8,9)" stroke-width="1" opacity="0.7333333333333333" d="M 346.5 366 L 348 366.5 L 340.5 371 L 341.5 369 L 346.5 366 Z " /><path fill="rgb(10,8,9)" stroke="rgb(10,8,9)" stroke-width="1" opacity="0.7333333333333333" d="M 310.5 371 L 309.5 373 L 300.5 378 L 301.5 376 L 310.5 371 Z " /><path fill="rgb(10,8,9)" stroke="rgb(10,8,9)" stroke-width="1" opacity="0.7333333333333333" d="M 338.5 371 L 337.5 373 L 333.5 375 L 334.5 373 L 338.5 371 Z " /><path fill="rgb(10,8,9)" stroke="rgb(10,8,9)" stroke-width="1" opacity="0.7333333333333333" d="M 330.5 375 L 332 375.5 L 326.5 379 L 327.5 377 L 330.5 375 Z " /><path fill="rgb(10,8,9)" stroke="rgb(10,8,9)" stroke-width="1" opacity="0.7333333333333333" d="M 135.5 377 L 144 379.5 L 141.5 380 L 135.5 378 L 135.5 377 Z " /><path fill="rgb(10,8,9)" stroke="rgb(10,8,9)" stroke-width="1" opacity="0.7333333333333333" d="M 298.5 378 L 297.5 380 L 291.5 383 L 291.5 382 L 298.5 378 Z " /><path fill="rgb(10,8,9)" stroke="rgb(10,8,9)" stroke-width="1" opacity="0.7333333333333333" d="M 323.5 379 L 325 379.5 L 319.5 383 L 320.5 381 L 323.5 379 Z " /><path fill="rgb(10,8,9)" stroke="rgb(10,8,9)" stroke-width="1" opacity="0.7333333333333333" d="M 151.5 382 L 154 382.5 L 151.5 383 L 151.5 382 Z " /><path fill="rgb(10,8,9)" stroke="rgb(10,8,9)" stroke-width="1" opacity="0.7333333333333333" d="M 289.5 383 L 288.5 385 L 286.5 386 L 287.5 384 L 289.5 383 Z " /><path fill="rgb(10,8,9)" stroke="rgb(10,8,9)" stroke-width="1" opacity="0.7333333333333333" d="M 317.5 383 L 316.5 385 L 310.5 388 L 311.5 386 L 317.5 383 Z " /><path fill="rgb(10,8,9)" stroke="rgb(10,8,9)" stroke-width="1" opacity="0.7333333333333333" d="M 158.5 384 L 163 385.5 L 161.5 386 L 158.5 385 L 158.5 384 Z " /><path fill="rgb(10,8,9)" stroke="rgb(10,8,9)" stroke-width="1" opacity="0.7333333333333333" d="M 164.5 386 L 170 387.5 L 167.5 388 L 164.5 387 L 164.5 386 Z " /><path fill="rgb(10,8,9)" stroke="rgb(10,8,9)" stroke-width="1" opacity="0.7333333333333333" d="M 284.5 386 L 283.5 388 L 279.5 390 L 280.5 388 L 284.5 386 Z " /><path fill="rgb(10,8,9)" stroke="rgb(10,8,9)" stroke-width="1" opacity="0.7333333333333333" d="M 171.5 388 L 176 389.5 L 174.5 390 L 171.5 389 L 171.5 388 Z " /><path fill="rgb(10,8,9)" stroke="rgb(10,8,9)" stroke-width="1" opacity="0.7333333333333333" d="M 308.5 388 L 307.5 390 L 308.5 388 Z " /><path fill="rgb(10,8,9)" stroke="rgb(10,8,9)" stroke-width="1" opacity="0.7333333333333333" d="M 128 389 L 131 389.5 L 129 390 L 128.5 407 L 128 389 Z " /><path fill="rgb(10,8,9)" stroke="rgb(10,8,9)" stroke-width="1" opacity="0.7333333333333333" d="M 132.5 390 L 137 391.5 L 135.5 392 L 132.5 391 L 132.5 390 Z " /><path fill="rgb(10,8,9)" stroke="rgb(10,8,9)" stroke-width="1" opacity="0.7333333333333333" d="M 177.5 390 L 183 391.5 L 180.5 392 L 177.5 391 L 177.5 390 Z " /><path fill="rgb(10,8,9)" stroke="rgb(10,8,9)" stroke-width="1" opacity="0.7333333333333333" d="M 277.5 390 L 276.5 392 L 272.5 394 L 273.5 392 L 277.5 390 Z " /><path fill="rgb(10,8,9)" stroke="rgb(10,8,9)" stroke-width="1" opacity="0.7333333333333333" d="M 304.5 390 L 306 390.5 L 303.5 392 L 304.5 390 Z " /><path fill="rgb(10,8,9)" stroke="rgb(10,8,9)" stroke-width="1" opacity="0.7333333333333333" d="M 138.5 392 L 144 393.5 L 141.5 394 L 138.5 393 L 138.5 392 Z " /><path fill="rgb(10,8,9)" stroke="rgb(10,8,9)" stroke-width="1" opacity="0.7333333333333333" d="M 301.5 392 L 300.5 394 L 296.5 396 L 297.5 394 L 301.5 392 Z " /><path fill="rgb(10,8,9)" stroke="rgb(10,8,9)" stroke-width="1" opacity="0.7333333333333333" d="M 148.5 395 L 151 395.5 L 148.5 396 L 148.5 395 Z " /><path fill="rgb(10,8,9)" stroke="rgb(10,8,9)" stroke-width="1" opacity="0.7333333333333333" d="M 268.5 395 L 267.5 397 L 263.5 399 L 264.5 397 L 268.5 395 Z " /><path fill="rgb(10,8,9)" stroke="rgb(10,8,9)" stroke-width="1" opacity="0.7333333333333333" d="M 152.5 396 L 157 397.5 L 155.5 398 L 152.5 397 L 152.5 396 Z " /><path fill="rgb(10,8,9)" stroke="rgb(10,8,9)" stroke-width="1" opacity="0.7333333333333333" d="M 197.5 396 L 206 398.5 L 203.5 399 L 197.5 397 L 197.5 396 Z " /><path fill="rgb(10,8,9)" stroke="rgb(10,8,9)" stroke-width="1" opacity="0.7333333333333333" d="M 294.5 396 L 293.5 398 L 289.5 400 L 290.5 398 L 294.5 396 Z " /><path fill="rgb(10,8,9)" stroke="rgb(10,8,9)" stroke-width="1" opacity="0.7333333333333333" d="M 159.5 398 L 164 399.5 L 161.5 400 L 159.5 398 Z " /><path fill="rgb(10,8,9)" stroke="rgb(10,8,9)" stroke-width="1" opacity="0.7333333333333333" d="M 261.5 399 L 260.5 401 L 258.5 402 L 259.5 400 L 261.5 399 Z " /><path fill="rgb(10,8,9)" stroke="rgb(10,8,9)" stroke-width="1" opacity="0.7333333333333333" d="M 165.5 400 L 171 401.5 L 168.5 402 L 165.5 401 L 165.5 400 Z " /><path fill="rgb(10,8,9)" stroke="rgb(10,8,9)" stroke-width="1" opacity="0.7333333333333333" d="M 213.5 401 L 219 402.5 L 216.5 403 L 213.5 402 L 213.5 401 Z " /><path fill="rgb(10,8,9)" stroke="rgb(10,8,9)" stroke-width="1" opacity="0.7333333333333333" d="M 285.5 401 L 284.5 403 L 280.5 405 L 281.5 403 L 285.5 401 Z " /><path fill="rgb(10,8,9)" stroke="rgb(10,8,9)" stroke-width="1" opacity="0.7333333333333333" d="M 256.5 402 L 255.5 404 L 249.5 407 L 250.5 405 L 256.5 402 Z " /><path fill="rgb(10,8,9)" stroke="rgb(10,8,9)" stroke-width="1" opacity="0.7333333333333333" d="M 220.5 403 L 225 404.5 L 222.5 405 L 220.5 403 Z " /><path fill="rgb(10,8,9)" stroke="rgb(10,8,9)" stroke-width="1" opacity="0.7333333333333333" d="M 181.5 404 L 187 406.5 L 184.5 407 L 181 406 L 181.5 404 Z " /><path fill="rgb(10,8,9)" stroke="rgb(10,8,9)" stroke-width="1" opacity="0.7333333333333333" d="M 226.5 405 L 232 406.5 L 229.5 407 L 226.5 406 L 226.5 405 Z " /><path fill="rgb(10,8,9)" stroke="rgb(10,8,9)" stroke-width="1" opacity="0.7333333333333333" d="M 278.5 405 L 277.5 407 L 273.5 409 L 274.5 407 L 278.5 405 Z " /><path fill="rgb(10,8,9)" stroke="rgb(10,8,9)" stroke-width="1" opacity="0.7333333333333333" d="M 115.5 407 L 117 410.5 L 116 410.5 L 115.5 407 Z " /><path fill="rgb(10,8,9)" stroke="rgb(10,8,9)" stroke-width="1" opacity="0.7333333333333333" d="M 188.5 407 L 194 408.5 L 191.5 409 L 188.5 408 L 188.5 407 Z " /><path fill="rgb(10,8,9)" stroke="rgb(10,8,9)" stroke-width="1" opacity="0.7333333333333333" d="M 233.5 407 L 239 408.5 L 236.5 409 L 233.5 408 L 233.5 407 Z " /><path fill="rgb(10,8,9)" stroke="rgb(10,8,9)" stroke-width="1" opacity="0.7333333333333333" d="M 247.5 407 L 246.5 409 L 245 408.5 L 247.5 407 Z " /><path fill="rgb(10,8,9)" stroke="rgb(10,8,9)" stroke-width="1" opacity="0.7333333333333333" d="M 195.5 409 L 200 410.5 L 197.5 411 L 195.5 409 Z " /><path fill="rgb(10,8,9)" stroke="rgb(10,8,9)" stroke-width="1" opacity="0.7333333333333333" d="M 240.5 409 L 244 409.5 L 240.5 410 L 240.5 409 Z " /><path fill="rgb(10,8,9)" stroke="rgb(10,8,9)" stroke-width="1" opacity="0.7333333333333333" d="M 271.5 409 L 270.5 411 L 259.5 417 L 260.5 415 L 271.5 409 Z " /><path fill="rgb(10,8,9)" stroke="rgb(10,8,9)" stroke-width="1" opacity="0.7333333333333333" d="M 125.5 410 L 127 410.5 Q 125 413.5 119.5 413 L 118.5 411 L 122.5 412 L 125.5 410 Z " /><path fill="rgb(10,8,9)" stroke="rgb(10,8,9)" stroke-width="1" opacity="0.7333333333333333" d="M 214.5 415 L 219 416.5 L 217.5 417 L 214.5 416 L 214.5 415 Z " /><path fill="rgb(10,8,9)" stroke="rgb(10,8,9)" stroke-width="1" opacity="0.7333333333333333" d="M 220.5 417 L 223 417.5 L 220.5 418 L 220.5 417 Z " /><path fill="rgb(10,8,9)" stroke="rgb(10,8,9)" stroke-width="1" opacity="0.7333333333333333" d="M 256.5 417 L 258 417.5 L 249.5 422 L 249.5 421 L 256.5 417 Z " /><path fill="rgb(10,8,9)" stroke="rgb(10,8,9)" stroke-width="1" opacity="0.7333333333333333" d="M 227.5 419 L 241 422.5 L 237.5 423 L 227.5 420 L 227.5 419 Z " /><path fill="rgb(10,8,9)" stroke="rgb(10,8,9)" stroke-width="1" opacity="0.7333333333333333" d="M 243.5 422 L 248 422.5 L 243.5 423 L 243.5 422 Z " /><path fill="rgb(10,8,9)" stroke="rgb(10,8,9)" stroke-width="1" opacity="0.7333333333333333" d="M 76.5 426 L 77 428 L 80 429.5 L 78.5 430 Q 74.9 428.9 76.5 426 Z " /><path fill="rgb(10,8,9)" stroke="rgb(10,8,9)" stroke-width="1" opacity="0.7333333333333333" d="M 88.5 426 L 89 427.5 L 85.5 430 L 85.5 429 L 88 427.5 L 88.5 426 Z " /><path fill="rgb(10,8,9)" stroke="rgb(10,8,9)" stroke-width="1" opacity="0.7333333333333333" d="M 81.5 430 L 84 430.5 L 81.5 431 L 81.5 430 Z " /></svg>